<svg xmlns="http://www.w3.org/2000/svg" width="20" height="20" fill="currentColor" viewBox="0 0 20 20">
  <path d="M14.076 2.032A4.237 4.237 0 0 1 17 3.202a3.921 3.921 0 0 1 1.216 2.814v7.968A3.921 3.921 0 0 1 17 16.797a4.236 4.236 0 0 1-2.924 1.17h-8.28a4.236 4.236 0 0 1-2.924-1.17 3.922 3.922 0 0 1-1.216-2.813V6.016a3.922 3.922 0 0 1 1.216-2.813 4.236 4.236 0 0 1 2.924-1.17h8.28Zm0-1.593h-8.28C2.608.439 0 2.949 0 6.016v7.968c0 3.067 2.608 5.577 5.796 5.577h8.28c3.188 0 5.796-2.51 5.796-5.577V6.016c0-3.067-2.608-5.577-5.796-5.577Z"/>
  <path d="M15.318 6.016c-.246 0-.486-.07-.69-.201a1.207 1.207 0 0 1-.457-.536 1.154 1.154 0 0 1-.071-.69c.048-.233.166-.446.34-.613.173-.167.395-.28.636-.327.24-.046.49-.022.717.068.227.09.421.244.558.44a1.163 1.163 0 0 1-.154 1.51 1.252 1.252 0 0 1-.879.35Zm-5.382.797c.655 0 1.296.187 1.84.537.545.35.97.848 1.22 1.43a3.09 3.09 0 0 1 .189 1.842 3.152 3.152 0 0 1-.907 1.632 3.354 3.354 0 0 1-1.696.872 3.432 3.432 0 0 1-1.913-.181 3.288 3.288 0 0 1-1.487-1.174A3.103 3.103 0 0 1 6.624 10c0-.846.35-1.656.971-2.254a3.383 3.383 0 0 1 2.341-.934Zm0-1.593c-.983 0-1.943.28-2.76.805a4.825 4.825 0 0 0-1.83 2.146 4.613 4.613 0 0 0-.283 2.762 4.726 4.726 0 0 0 1.36 2.447 5.031 5.031 0 0 0 2.544 1.309 5.15 5.15 0 0 0 2.87-.272 4.931 4.931 0 0 0 2.23-1.76A4.656 4.656 0 0 0 14.904 10a4.69 4.69 0 0 0-1.455-3.38 5.069 5.069 0 0 0-3.513-1.4Z"/>
</svg>
