<svg xmlns="http://www.w3.org/2000/svg" width="20" height="20" fill="currentColor" viewBox="0 0 20 20">
  <path d="M18.441.29H2.235C1.349.29.575.929.575 1.804v16.242c0 .88.774 1.664 1.66 1.664h16.201c.89 0 1.558-.79 1.558-1.664V1.803c.005-.875-.668-1.512-1.553-1.512ZM6.595 16.478H3.813v-8.65h2.782v8.65ZM5.3 6.512h-.02c-.89 0-1.466-.662-1.466-1.492 0-.845.591-1.492 1.501-1.492.91 0 1.468.643 1.488 1.492 0 .83-.577 1.492-1.503 1.492Zm11.462 9.965H13.98v-4.73c0-1.132-.405-1.907-1.411-1.907-.77 0-1.224.52-1.427 1.027-.076.182-.096.43-.096.683v4.927H8.264v-8.65h2.782v1.204c.405-.576 1.037-1.406 2.509-1.406 1.826 0 3.207 1.204 3.207 3.799v5.053Z"/>
</svg>
