<svg xmlns="http://www.w3.org/2000/svg" width="20" height="25" fill="currentColor" viewBox="0 0 20 25">
  <path d="M10 12.357a2.312 2.312 0 0 0 2.308-2.317A2.312 2.312 0 0 0 10 7.723a2.312 2.312 0 0 0-2.308 2.317A2.312 2.312 0 0 0 10 12.357Z"/>
  <path d="M10 0a9.98 9.98 0 0 0-7.071 2.94A10.06 10.06 0 0 0 0 10.04c0 4.773 5.154 10.504 9.485 14.473l.53.487.516-.502C15.323 19.864 20 14.944 20 10.04a10.076 10.076 0 0 0-2.929-7.1A9.965 9.965 0 0 0 10 0Zm0 13.902c-.76 0-1.504-.227-2.137-.651A3.876 3.876 0 0 1 7.28 7.31a3.841 3.841 0 0 1 4.192-.838 3.85 3.85 0 0 1 1.726 1.423 3.873 3.873 0 0 1-.478 4.876A3.838 3.838 0 0 1 10 13.9Z"/>
</svg>
