<svg xmlns="http://www.w3.org/2000/svg" width="54" height="54" fill="currentColor" viewBox="0 0 54 54">
  <path d="M27.06 54h-.12C12.087 54 0 41.914 0 27.06v-.12C0 12.087 12.086 0 26.94 0h.12C41.913 0 54 12.086 54 26.94v.12C54 41.913 41.914 54 27.06 54Zm-.12-52.172c-13.847 0-25.112 11.265-25.112 25.113v.118c0 13.848 11.265 25.113 25.113 25.113h.118c13.848 0 25.113-11.265 25.113-25.113v-.118c0-13.848-11.265-25.113-25.113-25.113h-.118Z"/>
  <path d="M13.356 18.255c-.687-.638-1.029-1.428-1.029-2.367 0-.94.344-1.764 1.029-2.404.687-.638 1.572-.958 2.656-.958s1.934.32 2.62.958c.686.638 1.028 1.44 1.028 2.404 0 .963-.343 1.729-1.029 2.367-.687.638-1.559.958-2.62.958-1.06 0-1.968-.32-2.655-.958Zm5.727 3.66v19.557h-6.18V21.914h6.18Zm20.572 1.931c1.347 1.462 2.02 3.47 2.02 6.024v11.256h-5.87V30.664c0-1.289-.334-2.29-1.001-3.003-.667-.713-1.567-1.072-2.692-1.072-1.126 0-2.026.357-2.693 1.072-.667.712-1.002 1.714-1.002 3.003v10.462h-5.903V21.86h5.904v2.555c.597-.851 1.403-1.524 2.416-2.02 1.012-.495 2.151-.741 3.418-.741 2.255 0 4.058.73 5.403 2.193Z"/>
</svg>
