<svg xmlns="http://www.w3.org/2000/svg" width="20" height="15" fill="currentColor" viewBox="0 0 20 15">
  <path d="M17.5 0h-15A2.45 2.45 0 0 0 .732.764 2.667 2.667 0 0 0 0 2.61v9.782c0 .692.263 1.356.732 1.845.47.49 1.105.764 1.768.764h15a2.45 2.45 0 0 0 1.768-.764c.469-.49.732-1.153.732-1.845V2.61c0-.692-.263-1.356-.732-1.845A2.449 2.449 0 0 0 17.5 0ZM6.062 9.593l-2.5 2.61a.606.606 0 0 1-.804-.085.672.672 0 0 1-.052-.842l2.5-2.609a.612.612 0 0 1 .44-.19.612.612 0 0 1 .573.407.678.678 0 0 1-.157.71Zm3.938.842a.61.61 0 0 1-.4-.15l-6.875-5.87a.643.643 0 0 1-.253-.445.68.68 0 0 1 .138-.498.63.63 0 0 1 .441-.236.601.601 0 0 1 .468.175L10 8.94l6.456-5.53a.616.616 0 0 1 .216-.12c.078-.025.161-.034.243-.025a.606.606 0 0 1 .422.236.672.672 0 0 1-.087.913l-6.875 5.87a.61.61 0 0 1-.375.15Zm7.313 1.767a.612.612 0 0 1-.441.19.612.612 0 0 1-.44-.19l-2.5-2.609a.656.656 0 0 1-.186-.463.677.677 0 0 1 .185-.463.612.612 0 0 1 .44-.19c.166 0 .324.069.441.19l2.5 2.61a.653.653 0 0 1 .185.462.677.677 0 0 1-.184.463Z"/>
</svg>
