<svg xmlns="http://www.w3.org/2000/svg" width="20" height="20" fill="currentColor" viewBox="0 0 20 20">
  <path d="M16.532 12.635a1.52 1.52 0 0 0-2.302 0 128.81 128.81 0 0 0-1.607 1.614.327.327 0 0 1-.445.079c-.348-.19-.722-.342-1.056-.551a16.651 16.651 0 0 1-4.027-3.674 9.578 9.578 0 0 1-1.449-2.309.328.328 0 0 1 .085-.426c.538-.525 1.063-1.056 1.594-1.594a1.535 1.535 0 0 0 0-2.361L6.059 2.147c-.432-.433-.865-.873-1.311-1.312a1.535 1.535 0 0 0-2.302 0c-.544.531-1.062 1.082-1.62 1.607a2.624 2.624 0 0 0-.82 1.77A7.539 7.539 0 0 0 .585 7.44a19.745 19.745 0 0 0 3.482 5.805 21.496 21.496 0 0 0 7.141 5.589c1.222.64 2.56 1.03 3.934 1.148a2.918 2.918 0 0 0 2.492-.945c.46-.518.977-.99 1.47-1.482a1.542 1.542 0 0 0 0-2.348 356.052 356.052 0 0 0-2.571-2.572Zm3.403-3.745A16.764 16.764 0 0 0 11.043.041a.656.656 0 0 0-.84.374.656.656 0 0 0 .355.866 15.465 15.465 0 0 1 8.197 8.16.656.656 0 0 0 .852.335.655.655 0 0 0 .328-.886Zm-9.718-4.047a9.365 9.365 0 0 1 4.97 4.94.656.656 0 0 0 .57.38c.09 0 .177-.021.257-.06a.656.656 0 0 0 .314-.845 10.625 10.625 0 0 0-5.64-5.609.656.656 0 0 0-.819.354.656.656 0 0 0 .348.84Z"/>
</svg>
