<svg xmlns="http://www.w3.org/2000/svg" width="20" height="16" fill="currentColor" viewBox="0 0 20 16">
  <path d="M19.576 2.154a8.063 8.063 0 0 1-2.258.61 3.892 3.892 0 0 0 1.73-2.139 7.901 7.901 0 0 1-2.498.938A3.96 3.96 0 0 0 13.678.338c-2.173 0-3.932 1.732-3.932 3.867a3.69 3.69 0 0 0 .101.882A11.217 11.217 0 0 1 1.74 1.044a3.817 3.817 0 0 0-.535 1.944c0 1.34.7 2.526 1.758 3.22a3.896 3.896 0 0 1-1.789-.483v.048c0 1.876 1.358 3.436 3.155 3.791-.338.09-.686.136-1.036.136-.248 0-.495-.024-.739-.072.5 1.537 1.954 2.654 3.676 2.686a7.974 7.974 0 0 1-5.823 1.6 11.136 11.136 0 0 0 6.02 1.748c7.243 0 11.2-5.894 11.2-11.006 0-.168-.005-.336-.013-.5a7.923 7.923 0 0 0 1.962-2.002Z"/>
</svg>
