<svg xmlns="http://www.w3.org/2000/svg" width="54" height="54" fill="currentColor" viewBox="0 0 54 54">
  <path d="M27.06 54h-.12C12.087 54 0 41.914 0 27.06v-.12C0 12.087 12.086 0 26.94 0h.12C41.913 0 54 12.086 54 26.94v.12C54 41.913 41.914 54 27.06 54Zm-.12-52.172c-13.847 0-25.112 11.265-25.112 25.113v.118c0 13.848 11.265 25.113 25.113 25.113h.118c13.848 0 25.113-11.265 25.113-25.113v-.118c0-13.848-11.265-25.113-25.113-25.113h-.118Z"/>
  <path d="M11.495 12.726 23.526 28.81 11.42 41.889h2.726l10.6-11.45 8.563 11.45h9.273l-12.708-16.99 11.269-12.173h-2.725L28.657 23.27 20.77 12.726h-9.275Zm4.007 2.007h4.259l18.81 25.149h-4.259l-18.81-25.15Z"/>
</svg>
