<svg xmlns="http://www.w3.org/2000/svg" width="54" height="54" fill="currentColor" viewBox="0 0 54 54">
  <path d="M27 54C12.112 54 0 41.888 0 27S12.112 0 27 0s27 12.112 27 27-12.112 27-27 27Zm0-52.167C13.123 1.833 1.833 13.123 1.833 27c0 13.877 11.29 25.167 25.167 25.167 13.877 0 25.167-11.29 25.167-25.167 0-13.877-11.29-25.167-25.167-25.167Z"/>
  <path d="M43.424 21.595c-.205-1.982-.647-4.172-2.272-5.323-1.26-.893-2.915-.926-4.46-.924-3.266.002-6.534.006-9.8.007l-9.425.01c-1.312.002-2.588-.101-3.807.467-1.046.488-1.866 1.415-2.358 2.447-.684 1.435-.827 3.06-.91 4.648a75.27 75.27 0 0 0 .046 8.677c.134 2.108.473 4.437 2.102 5.78 1.445 1.19 3.483 1.249 5.356 1.25 5.946.006 11.894.012 17.841.016.763.001 1.558-.013 2.335-.098 1.529-.165 2.986-.603 3.968-1.735.992-1.142 1.247-2.731 1.397-4.236a54.339 54.339 0 0 0-.013-10.986Zm-19.97 10.522V21.881l8.863 5.117-8.864 5.12Z"/>
</svg>
