<svg width="24" height="24" viewBox="0 0 24 24" fill="none" xmlns="http://www.w3.org/2000/svg">
<mask id="mask0_72_26763" style="mask-type:alpha" maskUnits="userSpaceOnUse" x="0" y="0" width="24" height="24">
<rect width="24" height="24" fill="#D9D9D9"/>
</mask>
<g mask="url(#mask0_72_26763)">
<path d="M20.2977 8.43875C21.5443 8.43875 22.5622 7.43228 22.5622 6.18563C22.5622 4.95042 21.5558 3.94395 20.3091 3.93251C19.0625 3.93251 18.056 4.92754 18.056 6.17419C18.0445 7.42085 19.051 8.42732 20.2977 8.43875Z" fill="white"/>
<path d="M3.6909 16.9938C2.44425 16.9938 1.43777 18.0002 1.43777 19.2469C1.43777 20.4935 2.45568 21.5 3.70233 21.5C4.94899 21.5 5.95546 20.4821 5.94402 19.2354C5.94402 17.9888 4.92611 16.9938 3.6909 16.9938Z" fill="white"/>
<path d="M18.422 11.8585C15.3911 11.847 12.3145 11.847 9.34086 11.8585C8.09421 11.8585 6.85899 11.8585 5.61234 11.8585C5.53228 11.8585 5.44078 11.8585 5.36072 11.8585C4.65162 11.8356 3.98826 11.481 3.54221 10.9092C3.09616 10.3259 2.92461 9.5939 3.08473 8.90767C3.34778 7.75252 4.31994 6.96336 5.52084 6.96336C7.08774 6.96336 8.64319 6.96336 10.2101 6.96336H11.8456C11.8799 6.96336 11.9142 6.96336 11.9485 6.96336H13.5726L12.0743 8.46163C11.7655 8.77043 11.7655 9.2851 12.0743 9.5939C12.2345 9.75403 12.4403 9.83409 12.6462 9.83409C12.8521 9.83409 13.0579 9.75403 13.2181 9.5939L16.0774 6.73461C16.2375 6.57449 16.3175 6.36862 16.3061 6.16275C16.3061 5.95688 16.226 5.75102 16.0774 5.5909L13.2181 2.7316C12.9093 2.4228 12.3946 2.4228 12.0858 2.7316C11.777 3.04041 11.777 3.55508 12.0858 3.86388L13.5726 5.35071H5.56659C5.00617 5.35071 4.48006 5.45365 3.97683 5.64808C2.90173 6.07126 2.05538 6.95192 1.66652 8.07276C1.27765 9.18217 1.39203 10.3831 1.96388 11.3667C2.76449 12.7391 3.97683 13.4368 5.56659 13.4482C8.60888 13.4597 11.7084 13.4597 14.6935 13.4482C15.9172 13.4482 17.141 13.4482 18.3533 13.4482C18.422 13.4482 18.4906 13.4482 18.5592 13.4482C19.3827 13.4711 20.1376 13.9057 20.5836 14.6034C21.0182 15.3011 21.0754 16.1588 20.7323 16.8908C20.2977 17.8401 19.4971 18.3433 18.4334 18.3433C15.86 18.3433 13.2981 18.3433 10.7248 18.3433H7.95696V19.9445H10.2673C13.0008 19.9445 15.7228 19.9445 18.4563 19.9445C18.9481 19.9445 19.417 19.8645 19.8516 19.7158C20.9839 19.3155 21.876 18.4348 22.2992 17.2911C22.7109 16.1588 22.608 14.9236 22.0132 13.9057C21.2241 12.5561 20.0117 11.8585 18.422 11.8585Z" fill="white"/>
</g>
</svg>
