<svg width="22" height="22" viewBox="0 0 22 22" fill="none" xmlns="http://www.w3.org/2000/svg">
<g clip-path="url(#clip0_151_816)">
<path fill-rule="evenodd" clip-rule="evenodd" d="M0 -0.366669H22V22H0V-0.366669Z" fill="white"/>
<path fill-rule="evenodd" clip-rule="evenodd" d="M2.41052 7.57901L4.69926 4.14719L5.27123 4.52864L2.98249 7.96046L2.41052 7.57901ZM3.26849 8.15117L5.5572 4.71937L6.12918 5.10082L3.84043 8.53263L3.26849 8.15117ZM4.12643 8.72337L6.41518 5.29155L6.98712 5.67301L4.69841 9.10482L4.12643 8.72337Z" fill="black"/>
<path fill-rule="evenodd" clip-rule="evenodd" d="M14.9939 15.9708L17.2826 12.539L17.8546 12.9204L15.5659 16.3522L14.9939 15.9708ZM15.8519 16.543L18.1406 13.1111L18.7126 13.4926L16.4238 16.9244L15.8519 16.543ZM16.7098 17.1151L18.9986 13.6833L19.5705 14.0648L17.2818 17.4966L16.7098 17.1151Z" fill="black"/>
<path d="M15.8512 14.0641L18.7111 15.9713" stroke="white" stroke-width="1.25"/>
<path fill-rule="evenodd" clip-rule="evenodd" d="M7.55823 8.5329C8.16524 7.62273 9.10895 6.99098 10.1818 6.77661C11.2546 6.56222 12.3686 6.78283 13.2788 7.38984C14.1889 7.99685 14.8207 8.94056 15.0351 10.0134C15.2494 11.0862 15.0289 12.2002 14.4218 13.1104L7.55823 8.5329Z" fill="#CD2E3A"/>
<path fill-rule="evenodd" clip-rule="evenodd" d="M7.5588 8.53323C6.95179 9.4434 6.73122 10.5574 6.94558 11.6302C7.15994 12.7031 7.79173 13.6467 8.70189 14.2538C9.61206 14.8608 10.7261 15.0814 11.7989 14.867C12.8717 14.6526 13.8154 14.0209 14.4224 13.1107C14.7259 12.6556 14.8362 12.0986 14.729 11.5622C14.6219 11.0258 14.306 10.5539 13.8509 10.2504C13.3958 9.94693 12.8388 9.83662 12.3024 9.94382C11.766 10.051 11.2941 10.3669 10.9906 10.8219L7.5588 8.53323Z" fill="#0047A0"/>
<path d="M10.9893 10.8212C11.6213 9.87357 11.3654 8.593 10.4178 7.96097C9.47012 7.32897 8.18953 7.58485 7.5575 8.5325C6.92549 9.48018 7.18138 10.7608 8.12906 11.3928C9.07671 12.0248 10.3573 11.7689 10.9893 10.8212Z" fill="#CD2E3A"/>
<path fill-rule="evenodd" clip-rule="evenodd" d="M4.70939 17.4983L2.42065 14.0665L2.99262 13.685L5.28136 17.1169L4.70939 17.4983ZM5.56733 16.9261L3.27862 13.4943L3.85056 13.1129L6.13931 16.5447L5.56733 16.9261ZM6.42531 16.3539L4.13656 12.9221L4.70854 12.5407L6.99725 15.9725L6.42531 16.3539Z" fill="black"/>
<path fill-rule="evenodd" clip-rule="evenodd" d="M17.2928 9.10652L15.004 5.67471L15.576 5.29326L17.8647 8.72506L17.2928 9.10652ZM18.1507 8.53435L15.862 5.10253L16.434 4.72108L18.7227 8.1529L18.1507 8.53435ZM19.0087 7.96216L16.7199 4.53035L17.2919 4.1489L19.5807 7.58071L19.0087 7.96216Z" fill="black"/>
<path d="M4.27966 15.3058L5.13761 14.7337M15.862 7.58136L16.863 6.91382M17.7209 6.34163L18.5789 5.76944" stroke="white" stroke-width="1.25"/>
</g>
<rect x="0.5" y="0.5" width="21" height="21" rx="10.5" stroke="#F3F3F3"/>
<defs>
<clipPath id="clip0_151_816">
<rect width="22" height="22" rx="11" fill="white"/>
</clipPath>
</defs>
</svg>
