<svg style="display: none;" aria-hidden="true" xmlns="http://www.w3.org/2000/svg" xmlns:xlink="http://www.w3.org/1999/xlink"><symbol fill="currentColor" viewBox="0 0 54 54" id="svg-X"><path d="M27.06 54h-.12C12.087 54 0 41.914 0 27.06v-.12C0 12.087 12.086 0 26.94 0h.12C41.913 0 54 12.086 54 26.94v.12C54 41.913 41.914 54 27.06 54Zm-.12-52.172c-13.847 0-25.112 11.265-25.112 25.113v.118c0 13.848 11.265 25.113 25.113 25.113h.118c13.848 0 25.113-11.265 25.113-25.113v-.118c0-13.848-11.265-25.113-25.113-25.113h-.118Z"/><path d="M11.495 12.726 23.526 28.81 11.42 41.889h2.726l10.6-11.45 8.563 11.45h9.273l-12.708-16.99 11.269-12.173h-2.725L28.657 23.27 20.77 12.726h-9.275Zm4.007 2.007h4.259l18.81 25.149h-4.259l-18.81-25.15Z"/></symbol><symbol fill="currentColor" viewBox="0 0 20 25" id="svg-address"><path d="M10 12.357a2.312 2.312 0 0 0 2.308-2.317A2.312 2.312 0 0 0 10 7.723a2.312 2.312 0 0 0-2.308 2.317A2.312 2.312 0 0 0 10 12.357Z"/><path d="M10 0a9.98 9.98 0 0 0-7.071 2.94A10.06 10.06 0 0 0 0 10.04c0 4.773 5.154 10.504 9.485 14.473l.53.487.516-.502C15.323 19.864 20 14.944 20 10.04a10.076 10.076 0 0 0-2.929-7.1A9.965 9.965 0 0 0 10 0Zm0 13.902c-.76 0-1.504-.227-2.137-.651A3.876 3.876 0 0 1 7.28 7.31a3.841 3.841 0 0 1 4.192-.838 3.85 3.85 0 0 1 1.726 1.423 3.873 3.873 0 0 1-.478 4.876A3.838 3.838 0 0 1 10 13.9Z"/></symbol><symbol fill="currentColor" viewBox="0 0 10 6" id="svg-arrow"><path d="M.47.47a.75.75 0 0 0-.052 1.004l.052.056 4 4a.75.75 0 0 0 1.06 0l4-4A.75.75 0 1 0 8.47.47L5 3.94 1.53.47 1.474.418A.75.75 0 0 0 .47.47Z"/></symbol><symbol fill="currentColor" viewBox="0 0 20 20" id="svg-close"><path d="M10 7.879 17.425.454l2.121 2.12L12.121 10l7.425 7.425-2.12 2.12L10 12.122l-7.425 7.425-2.12-2.121L7.878 10 .454 2.575 2.575.454 10 7.879Z"/></symbol><symbol fill="currentColor" viewBox="0 0 22 20" id="svg-facebook"><path d="M21.407 10.058c0-5.311-4.598-9.617-10.268-9.617C5.47.44.872 4.747.872 10.058c0 4.8 3.754 8.778 8.663 9.5v-6.72H6.927v-2.78h2.608V7.939c0-2.41 1.533-3.742 3.878-3.742 1.124 0 2.299.188 2.299.188v2.367h-1.296c-1.274 0-1.673.741-1.673 1.503v1.803h2.847l-.454 2.78h-2.393v6.721c4.91-.722 8.664-4.7 8.664-9.501Z" clip-rule="evenodd"/></symbol><symbol fill="currentColor" viewBox="0 0 20 20" id="svg-instagram"><path d="M14.076 2.032A4.237 4.237 0 0 1 17 3.202a3.921 3.921 0 0 1 1.216 2.814v7.968A3.921 3.921 0 0 1 17 16.797a4.236 4.236 0 0 1-2.924 1.17h-8.28a4.236 4.236 0 0 1-2.924-1.17 3.922 3.922 0 0 1-1.216-2.813V6.016a3.922 3.922 0 0 1 1.216-2.813 4.236 4.236 0 0 1 2.924-1.17h8.28Zm0-1.593h-8.28C2.608.439 0 2.949 0 6.016v7.968c0 3.067 2.608 5.577 5.796 5.577h8.28c3.188 0 5.796-2.51 5.796-5.577V6.016c0-3.067-2.608-5.577-5.796-5.577Z"/><path d="M15.318 6.016c-.246 0-.486-.07-.69-.201a1.207 1.207 0 0 1-.457-.536 1.154 1.154 0 0 1-.071-.69c.048-.233.166-.446.34-.613.173-.167.395-.28.636-.327.24-.046.49-.022.717.068.227.09.421.244.558.44a1.163 1.163 0 0 1-.154 1.51 1.252 1.252 0 0 1-.879.35Zm-5.382.797c.655 0 1.296.187 1.84.537.545.35.97.848 1.22 1.43a3.09 3.09 0 0 1 .189 1.842 3.152 3.152 0 0 1-.907 1.632 3.354 3.354 0 0 1-1.696.872 3.432 3.432 0 0 1-1.913-.181 3.288 3.288 0 0 1-1.487-1.174A3.103 3.103 0 0 1 6.624 10c0-.846.35-1.656.971-2.254a3.383 3.383 0 0 1 2.341-.934Zm0-1.593c-.983 0-1.943.28-2.76.805a4.825 4.825 0 0 0-1.83 2.146 4.613 4.613 0 0 0-.283 2.762 4.726 4.726 0 0 0 1.36 2.447 5.031 5.031 0 0 0 2.544 1.309 5.15 5.15 0 0 0 2.87-.272 4.931 4.931 0 0 0 2.23-1.76A4.656 4.656 0 0 0 14.904 10a4.69 4.69 0 0 0-1.455-3.38 5.069 5.069 0 0 0-3.513-1.4Z"/></symbol><symbol fill="currentColor" viewBox="0 0 20 20" id="svg-linkdin"><path d="M18.441.29H2.235C1.349.29.575.929.575 1.804v16.242c0 .88.774 1.664 1.66 1.664h16.201c.89 0 1.558-.79 1.558-1.664V1.803c.005-.875-.668-1.512-1.553-1.512ZM6.595 16.478H3.813v-8.65h2.782v8.65ZM5.3 6.512h-.02c-.89 0-1.466-.662-1.466-1.492 0-.845.591-1.492 1.501-1.492.91 0 1.468.643 1.488 1.492 0 .83-.577 1.492-1.503 1.492Zm11.462 9.965H13.98v-4.73c0-1.132-.405-1.907-1.411-1.907-.77 0-1.224.52-1.427 1.027-.076.182-.096.43-.096.683v4.927H8.264v-8.65h2.782v1.204c.405-.576 1.037-1.406 2.509-1.406 1.826 0 3.207 1.204 3.207 3.799v5.053Z"/></symbol><symbol fill="currentColor" viewBox="0 0 54 54" id="svg-linkdin2"><path d="M27.06 54h-.12C12.087 54 0 41.914 0 27.06v-.12C0 12.087 12.086 0 26.94 0h.12C41.913 0 54 12.086 54 26.94v.12C54 41.913 41.914 54 27.06 54Zm-.12-52.172c-13.847 0-25.112 11.265-25.112 25.113v.118c0 13.848 11.265 25.113 25.113 25.113h.118c13.848 0 25.113-11.265 25.113-25.113v-.118c0-13.848-11.265-25.113-25.113-25.113h-.118Z"/><path d="M13.356 18.255c-.687-.638-1.029-1.428-1.029-2.367 0-.94.344-1.764 1.029-2.404.687-.638 1.572-.958 2.656-.958s1.934.32 2.62.958c.686.638 1.028 1.44 1.028 2.404 0 .963-.343 1.729-1.029 2.367-.687.638-1.559.958-2.62.958-1.06 0-1.968-.32-2.655-.958Zm5.727 3.66v19.557h-6.18V21.914h6.18Zm20.572 1.931c1.347 1.462 2.02 3.47 2.02 6.024v11.256h-5.87V30.664c0-1.289-.334-2.29-1.001-3.003-.667-.713-1.567-1.072-2.692-1.072-1.126 0-2.026.357-2.693 1.072-.667.712-1.002 1.714-1.002 3.003v10.462h-5.903V21.86h5.904v2.555c.597-.851 1.403-1.524 2.416-2.02 1.012-.495 2.151-.741 3.418-.741 2.255 0 4.058.73 5.403 2.193Z"/></symbol><symbol fill="currentColor" viewBox="0 0 20 15" id="svg-mail"><path d="M17.5 0h-15A2.45 2.45 0 0 0 .732.764 2.667 2.667 0 0 0 0 2.61v9.782c0 .692.263 1.356.732 1.845.47.49 1.105.764 1.768.764h15a2.45 2.45 0 0 0 1.768-.764c.469-.49.732-1.153.732-1.845V2.61c0-.692-.263-1.356-.732-1.845A2.449 2.449 0 0 0 17.5 0ZM6.062 9.593l-2.5 2.61a.606.606 0 0 1-.804-.085.672.672 0 0 1-.052-.842l2.5-2.609a.612.612 0 0 1 .44-.19.612.612 0 0 1 .573.407.678.678 0 0 1-.157.71Zm3.938.842a.61.61 0 0 1-.4-.15l-6.875-5.87a.643.643 0 0 1-.253-.445.68.68 0 0 1 .138-.498.63.63 0 0 1 .441-.236.601.601 0 0 1 .468.175L10 8.94l6.456-5.53a.616.616 0 0 1 .216-.12c.078-.025.161-.034.243-.025a.606.606 0 0 1 .422.236.672.672 0 0 1-.087.913l-6.875 5.87a.61.61 0 0 1-.375.15Zm7.313 1.767a.612.612 0 0 1-.441.19.612.612 0 0 1-.44-.19l-2.5-2.609a.656.656 0 0 1-.186-.463.677.677 0 0 1 .185-.463.612.612 0 0 1 .44-.19c.166 0 .324.069.441.19l2.5 2.61a.653.653 0 0 1 .185.462.677.677 0 0 1-.184.463Z"/></symbol><symbol fill="currentColor" viewBox="0 0 20 20" id="svg-phone"><path d="M16.532 12.635a1.52 1.52 0 0 0-2.302 0 128.81 128.81 0 0 0-1.607 1.614.327.327 0 0 1-.445.079c-.348-.19-.722-.342-1.056-.551a16.651 16.651 0 0 1-4.027-3.674 9.578 9.578 0 0 1-1.449-2.309.328.328 0 0 1 .085-.426c.538-.525 1.063-1.056 1.594-1.594a1.535 1.535 0 0 0 0-2.361L6.059 2.147c-.432-.433-.865-.873-1.311-1.312a1.535 1.535 0 0 0-2.302 0c-.544.531-1.062 1.082-1.62 1.607a2.624 2.624 0 0 0-.82 1.77A7.539 7.539 0 0 0 .585 7.44a19.745 19.745 0 0 0 3.482 5.805 21.496 21.496 0 0 0 7.141 5.589c1.222.64 2.56 1.03 3.934 1.148a2.918 2.918 0 0 0 2.492-.945c.46-.518.977-.99 1.47-1.482a1.542 1.542 0 0 0 0-2.348 356.052 356.052 0 0 0-2.571-2.572Zm3.403-3.745A16.764 16.764 0 0 0 11.043.041a.656.656 0 0 0-.84.374.656.656 0 0 0 .355.866 15.465 15.465 0 0 1 8.197 8.16.656.656 0 0 0 .852.335.655.655 0 0 0 .328-.886Zm-9.718-4.047a9.365 9.365 0 0 1 4.97 4.94.656.656 0 0 0 .57.38c.09 0 .177-.021.257-.06a.656.656 0 0 0 .314-.845 10.625 10.625 0 0 0-5.64-5.609.656.656 0 0 0-.819.354.656.656 0 0 0 .348.84Z"/></symbol><symbol fill="currentColor" viewBox="0 0 20 16" id="svg-twitter"><path d="M19.576 2.154a8.063 8.063 0 0 1-2.258.61 3.892 3.892 0 0 0 1.73-2.139 7.901 7.901 0 0 1-2.498.938A3.96 3.96 0 0 0 13.678.338c-2.173 0-3.932 1.732-3.932 3.867a3.69 3.69 0 0 0 .101.882A11.217 11.217 0 0 1 1.74 1.044a3.817 3.817 0 0 0-.535 1.944c0 1.34.7 2.526 1.758 3.22a3.896 3.896 0 0 1-1.789-.483v.048c0 1.876 1.358 3.436 3.155 3.791-.338.09-.686.136-1.036.136-.248 0-.495-.024-.739-.072.5 1.537 1.954 2.654 3.676 2.686a7.974 7.974 0 0 1-5.823 1.6 11.136 11.136 0 0 0 6.02 1.748c7.243 0 11.2-5.894 11.2-11.006 0-.168-.005-.336-.013-.5a7.923 7.923 0 0 0 1.962-2.002Z"/></symbol><symbol fill="currentColor" viewBox="0 0 26 20" id="svg-youtube"><path d="M25.457 3.295c-.3-1.199-1.18-2.142-2.3-2.463C21.132.25 13 .25 13 .25S4.87.25 2.842.832c-1.119.32-2 1.264-2.299 2.463C0 5.467 0 10 0 10s0 4.533.543 6.705c.3 1.199 1.18 2.143 2.299 2.463C4.87 19.75 13 19.75 13 19.75s8.13 0 10.158-.582c1.119-.32 2-1.264 2.299-2.463C26 14.533 26 10 26 10s0-4.533-.543-6.705ZM10.562 14.663V6.185l6.5 4.24-6.5 4.238Z"/></symbol><symbol fill="currentColor" viewBox="0 0 54 54" id="svg-youtube2"><path d="M27 54C12.112 54 0 41.888 0 27S12.112 0 27 0s27 12.112 27 27-12.112 27-27 27Zm0-52.167C13.123 1.833 1.833 13.123 1.833 27c0 13.877 11.29 25.167 25.167 25.167 13.877 0 25.167-11.29 25.167-25.167 0-13.877-11.29-25.167-25.167-25.167Z"/><path d="M43.424 21.595c-.205-1.982-.647-4.172-2.272-5.323-1.26-.893-2.915-.926-4.46-.924-3.266.002-6.534.006-9.8.007l-9.425.01c-1.312.002-2.588-.101-3.807.467-1.046.488-1.866 1.415-2.358 2.447-.684 1.435-.827 3.06-.91 4.648a75.27 75.27 0 0 0 .046 8.677c.134 2.108.473 4.437 2.102 5.78 1.445 1.19 3.483 1.249 5.356 1.25 5.946.006 11.894.012 17.841.016.763.001 1.558-.013 2.335-.098 1.529-.165 2.986-.603 3.968-1.735.992-1.142 1.247-2.731 1.397-4.236a54.339 54.339 0 0 0-.013-10.986Zm-19.97 10.522V21.881l8.863 5.117-8.864 5.12Z"/></symbol></svg>