<svg width="220" height="42" viewBox="0 0 220 42" fill="none" xmlns="http://www.w3.org/2000/svg">
<path d="M74.9627 14.1167L69.3754 19.7167H66.931V14.1167H64.3701V27.7667H66.931V22.2833H69.3754L74.9627 27.7667H78.5712L71.7035 20.8833L78.5712 14.1167H74.9627Z" fill="#95C123"/>
<path d="M62.0421 15.2833C61.6929 14.9333 61.2273 14.5833 60.7617 14.35C60.2961 14.1167 59.7141 14 59.2485 14H53.6612C53.0792 14 52.6136 14.1167 52.0316 14.35C51.5659 14.5833 51.1003 14.8167 50.7511 15.2833C50.4019 15.6333 50.0527 16.1 49.8199 16.5667C49.5871 17.0333 49.4707 17.6167 49.4707 18.2V23.6833C49.4707 24.2667 49.5871 24.7333 49.8199 25.3167C50.0527 25.7833 50.2855 26.25 50.7511 26.6C51.1003 26.95 51.5659 27.3 52.0316 27.5333C52.4972 27.7667 53.0792 27.8833 53.6612 27.8833H59.2485C59.8305 27.8833 60.2961 27.7667 60.8781 27.5333C61.3437 27.3 61.8093 27.0667 62.1585 26.6C62.5078 26.25 62.857 25.7833 63.0898 25.3167C63.3226 24.85 63.439 24.2667 63.439 23.6833V18.2C63.439 17.6167 63.3226 17.15 63.0898 16.5667C62.7406 16.1 62.3913 15.6333 62.0421 15.2833ZM60.6453 18.2V23.6833C60.6453 24.15 60.5289 24.3833 60.1797 24.7333C59.8305 25.0833 59.5977 25.2 59.1321 25.2H53.5448C53.0792 25.2 52.8464 25.0833 52.4972 24.7333C52.148 24.3833 52.0316 24.15 52.0316 23.6833V18.2C52.0316 17.7333 52.148 17.5 52.4972 17.15C52.8464 16.8 53.0792 16.6833 53.5448 16.6833H59.1321C59.5977 16.6833 59.8305 16.8 60.1797 17.15C60.5289 17.3833 60.6453 17.7333 60.6453 18.2Z" fill="#95C123"/>
<path d="M149.809 27.7667V18.0833C149.809 17.5 149.693 17.0333 149.46 16.45C149.227 15.9833 148.878 15.5167 148.529 15.1667C148.18 14.8167 147.714 14.4667 147.248 14.2333C146.783 14 146.201 13.8833 145.735 13.8833H140.264C139.682 13.8833 139.1 14 138.635 14.2333C138.169 14.4667 137.703 14.8167 137.354 15.1667C137.005 15.5167 136.656 15.9833 136.423 16.45C136.19 16.9167 136.074 17.5 136.074 17.9667V27.65H138.635V23.9167H147.132V27.65H149.809V27.7667ZM147.248 18.2V21.5833H138.751V18.2C138.751 17.7333 138.867 17.5 139.217 17.15C139.566 16.8 139.799 16.6833 140.264 16.6833H145.735C146.201 16.6833 146.434 16.8 146.783 17.15C147.016 17.3833 147.248 17.7333 147.248 18.2Z" fill="#95C123"/>
<path d="M79.0371 16.6833H84.508V27.7667H87.0689V16.6833H92.6562V14.1167H79.0371V16.6833Z" fill="#95C123"/>
<path d="M122.338 16.6833H127.809V27.7667H130.37V16.6833H135.957V14.1167H122.338V16.6833Z" fill="#95C123"/>
<path d="M105.46 15.2833C105.111 14.9333 104.646 14.5833 104.18 14.35C103.714 14.1167 103.132 14 102.667 14H97.1958C96.6138 14 96.0318 14.1167 95.5662 14.35C95.1006 14.5833 94.635 14.9333 94.2858 15.2833C93.9366 15.6333 93.5874 16.1 93.3546 16.5667C93.1218 17.0333 93.0054 17.6167 93.0054 18.0833V27.7667H95.5662V24.0333H104.064V27.7667H106.624V18.0833C106.624 17.5 106.508 17.0333 106.275 16.45C106.042 16.1 105.81 15.6333 105.46 15.2833ZM104.064 18.2V21.5833H95.5662V18.2C95.5662 17.7333 95.6826 17.5 96.0318 17.15C96.381 16.8 96.6138 16.6833 97.0794 16.6833H102.55C103.016 16.6833 103.249 16.8 103.598 17.15C103.947 17.3833 104.064 17.7333 104.064 18.2Z" fill="#95C123"/>
<path d="M110.582 14.1167L118.963 23.9167V14.1167H121.524V27.7667H118.963L110.582 18.0833V27.8833H108.021V14.1167H110.582Z" fill="#95C123"/>
<path d="M20.9524 39.9C31.3669 39.9 39.8095 31.4382 39.8095 21C39.8095 10.5618 31.3669 2.1 20.9524 2.1C10.5379 2.1 2.09521 10.5618 2.09521 21C2.09521 31.4382 10.5379 39.9 20.9524 39.9Z" fill="url(#paint0_radial_2166_7660)"/>
<mask id="mask0_2166_7660" style="mask-type:luminance" maskUnits="userSpaceOnUse" x="2" y="2" width="38" height="38">
<path d="M20.9524 39.9C31.3669 39.9 39.8095 31.4382 39.8095 21C39.8095 10.5618 31.3669 2.1 20.9524 2.1C10.5379 2.1 2.09521 10.5618 2.09521 21C2.09521 31.4382 10.5379 39.9 20.9524 39.9Z" fill="white"/>
</mask>
<g mask="url(#mask0_2166_7660)">
<path d="M16.4129 39.9C16.2965 39.7833 16.1801 39.7833 16.0637 39.7833C15.9473 39.9 15.9473 40.0167 15.9473 40.1333C15.9473 40.25 16.0637 40.25 16.1801 40.25H16.2965C16.4129 40.25 16.4129 40.0167 16.4129 39.9Z" fill="#9AAF57"/>
<path d="M18.2752 38.85C18.1588 38.7333 18.0424 38.7333 17.926 38.7333C17.8096 38.85 17.8096 38.9667 17.8096 39.0833C17.8096 39.2 17.926 39.2 18.0424 39.2H18.1588C18.2752 39.0833 18.2752 38.9667 18.2752 38.85Z" fill="#9AAF57"/>
<path d="M20.1375 37.6833C20.0211 37.5667 19.9047 37.5667 19.7883 37.5667C19.6719 37.6833 19.6719 37.8 19.6719 37.9167C19.6719 38.0333 19.7883 38.0333 19.9047 38.0333H20.0211C20.2539 38.0333 20.2539 37.8 20.1375 37.6833Z" fill="#9AAF57"/>
<path d="M21.9998 36.6333C21.8834 36.5167 21.767 36.5167 21.6506 36.5167C21.5342 36.6333 21.5342 36.75 21.5342 36.8667C21.5342 36.9833 21.6506 36.9833 21.767 36.9833H21.8834C22.1162 36.8667 22.1162 36.75 21.9998 36.6333Z" fill="#9AAF57"/>
<path d="M23.9788 35.4667C23.8624 35.35 23.746 35.35 23.6296 35.35C23.5132 35.4667 23.5132 35.5833 23.5132 35.7C23.5132 35.8167 23.6296 35.8167 23.746 35.8167H23.8624C23.9788 35.8167 23.9788 35.5833 23.9788 35.4667Z" fill="#9AAF57"/>
<path d="M25.8411 34.4167C25.7247 34.3 25.6083 34.3 25.4919 34.3C25.3755 34.4167 25.3755 34.5333 25.3755 34.65C25.3755 34.7667 25.4919 34.7667 25.6083 34.7667H25.7247C25.8411 34.65 25.8411 34.5333 25.8411 34.4167Z" fill="#9AAF57"/>
<path d="M27.7039 33.25C27.5875 33.1333 27.4711 33.1333 27.3547 33.1333C27.2383 33.25 27.2383 33.3667 27.2383 33.4833C27.2383 33.6 27.3547 33.6 27.4711 33.6H27.5875C27.7039 33.4833 27.8203 33.3667 27.7039 33.25Z" fill="#9AAF57"/>
<path d="M29.5662 32.2C29.4498 32.0833 29.3334 32.0833 29.217 32.0833C29.1006 32.2 29.1006 32.3167 29.1006 32.4333C29.1006 32.55 29.217 32.55 29.3334 32.55H29.4498C29.6826 32.4333 29.6826 32.3167 29.5662 32.2Z" fill="#9AAF57"/>
<path d="M31.5452 31.0333C31.4288 30.9167 31.3124 30.9167 31.196 30.9167C31.0796 31.0333 31.0796 31.15 31.0796 31.2667C31.0796 31.3833 31.196 31.3833 31.3124 31.3833H31.4288C31.5452 31.2667 31.5452 31.15 31.5452 31.0333Z" fill="#9AAF57"/>
<path d="M33.4075 29.9833C33.2911 29.8667 33.1747 29.8667 33.0583 29.8667C32.9419 29.9833 32.9419 30.1 32.9419 30.2167C32.9419 30.3333 33.0583 30.3333 33.1747 30.3333H33.2911C33.4075 30.2167 33.4075 30.1 33.4075 29.9833Z" fill="#9AAF57"/>
<path d="M35.2698 28.8167C35.1534 28.7 35.037 28.7 34.9206 28.7C34.8042 28.8167 34.8042 28.9333 34.8042 29.05C34.8042 29.1667 34.9206 29.1667 35.037 29.1667H35.1534C35.2698 29.05 35.3862 28.9333 35.2698 28.8167Z" fill="#9AAF57"/>
<path d="M37.1321 27.7667C37.0157 27.65 36.8993 27.65 36.7829 27.65C36.6665 27.7667 36.6665 27.8833 36.6665 28C36.6665 28.1167 36.7829 28.1167 36.8993 28.1167H37.0157C37.2485 28 37.2485 27.8833 37.1321 27.7667Z" fill="#9AAF57"/>
<path d="M39.1113 26.6C38.9949 26.4833 38.8785 26.4833 38.7621 26.4833H38.6457C38.5293 26.6 38.5293 26.7167 38.5293 26.8333C38.5293 26.95 38.6457 26.95 38.7621 26.95H38.8785C39.1113 26.8333 39.1113 26.7167 39.1113 26.6Z" fill="#9AAF57"/>
<path d="M13.2698 39.0833C13.1534 38.9667 13.037 38.9667 12.9206 38.9667C12.8042 39.0833 12.8042 39.2 12.8042 39.3167C12.8042 39.4333 12.9206 39.4333 13.037 39.4333H13.1534C13.3862 39.3167 13.3862 39.2 13.2698 39.0833Z" fill="#9AAF57"/>
<path d="M15.2488 37.9167C15.1324 37.8 15.016 37.8 14.8996 37.8C14.7832 37.9167 14.7832 38.0333 14.7832 38.15C14.7832 38.2667 14.8996 38.2667 15.016 38.2667H15.1324C15.2488 38.15 15.2488 38.0333 15.2488 37.9167Z" fill="#9AAF57"/>
<path d="M17.1111 36.75C16.9947 36.6333 16.8783 36.6333 16.7619 36.6333C16.6455 36.75 16.6455 36.8667 16.6455 36.9833C16.6455 37.1 16.7619 37.1 16.8783 37.1H16.9947C17.1111 37.1 17.1111 36.9833 17.1111 36.75Z" fill="#9AAF57"/>
<path d="M18.9734 35.7C18.857 35.5833 18.7406 35.5833 18.6242 35.5833C18.5078 35.7 18.5078 35.8167 18.5078 35.9333C18.5078 36.05 18.6242 36.05 18.7406 36.05H18.857C18.9734 35.9333 19.0898 35.8167 18.9734 35.7Z" fill="#9AAF57"/>
<path d="M20.8357 34.5333C20.7193 34.4167 20.6029 34.4167 20.4865 34.4167C20.3701 34.5333 20.3701 34.65 20.3701 34.7667C20.3701 34.8833 20.4865 34.8833 20.6029 34.8833H20.7193C20.9521 34.8833 20.9521 34.65 20.8357 34.5333Z" fill="#9AAF57"/>
<path d="M22.6985 33.4833C22.5821 33.3667 22.4657 33.3667 22.3493 33.3667C22.2329 33.4833 22.2329 33.6 22.2329 33.7167C22.2329 33.8333 22.3493 33.8333 22.4657 33.8333H22.5821C22.8149 33.7167 22.8149 33.6 22.6985 33.4833Z" fill="#9AAF57"/>
<path d="M24.677 32.3167C24.5606 32.2 24.4442 32.2 24.3278 32.2C24.2114 32.3167 24.2114 32.4333 24.2114 32.55C24.2114 32.6667 24.3278 32.6667 24.4442 32.6667H24.5606C24.677 32.6667 24.677 32.4333 24.677 32.3167Z" fill="#9AAF57"/>
<path d="M26.5398 31.2667C26.4234 31.15 26.307 31.15 26.1906 31.15C26.0742 31.2667 26.0742 31.3833 26.0742 31.5C26.0742 31.6167 26.1906 31.6167 26.307 31.6167H26.4234C26.5398 31.5 26.5398 31.3833 26.5398 31.2667Z" fill="#9AAF57"/>
<path d="M28.4021 30.1C28.2857 29.9833 28.1693 29.9833 28.0529 29.9833C27.9365 30.1 27.9365 30.3333 27.9365 30.45C27.9365 30.5667 28.0529 30.5667 28.1693 30.5667H28.2857C28.5185 30.45 28.5185 30.2167 28.4021 30.1Z" fill="#9AAF57"/>
<path d="M30.2644 29.05C30.148 28.9333 30.0316 28.9333 29.9152 28.9333C29.7988 29.05 29.7988 29.1667 29.7988 29.2833C29.7988 29.4 29.9152 29.4 30.0316 29.4H30.148C30.3808 29.2833 30.3808 29.1667 30.2644 29.05Z" fill="#9AAF57"/>
<path d="M32.2434 27.8833C32.127 27.7667 32.0106 27.7667 31.8942 27.7667C31.7778 27.8833 31.7778 28 31.7778 28.1167C31.7778 28.2333 31.8942 28.2333 32.0106 28.2333H32.127C32.2434 28.2333 32.2434 28 32.2434 27.8833Z" fill="#9AAF57"/>
<path d="M34.1057 26.8333C33.9893 26.7167 33.8729 26.7167 33.7565 26.7167C33.6401 26.8333 33.6401 26.95 33.6401 27.0667C33.6401 27.1833 33.7565 27.1833 33.8729 27.1833H33.9893C34.1057 27.0667 34.1057 26.95 34.1057 26.8333Z" fill="#9AAF57"/>
<path d="M35.968 25.6667C35.8516 25.55 35.7352 25.55 35.6188 25.55C35.5024 25.6667 35.5024 25.7833 35.5024 25.9C35.5024 26.0167 35.6188 26.0167 35.7352 26.0167H35.8516C36.0845 26.0167 36.0845 25.7833 35.968 25.6667Z" fill="#9AAF57"/>
<path d="M37.8308 24.6167C37.7144 24.5 37.598 24.5 37.4816 24.5C37.3652 24.6167 37.3652 24.7333 37.3652 24.85C37.3652 24.9667 37.4816 24.9667 37.598 24.9667H37.7144C37.9472 24.85 37.9472 24.7333 37.8308 24.6167Z" fill="#9AAF57"/>
<path d="M39.693 23.45C39.693 23.3333 39.5766 23.3333 39.4602 23.3333C39.3438 23.45 39.3438 23.5667 39.3438 23.6833C39.3438 23.8 39.4602 23.8 39.5766 23.8H39.693C39.8094 23.8 39.8094 23.5667 39.693 23.45Z" fill="#9AAF57"/>
<path d="M12.1057 36.9833C11.9893 36.8667 11.8729 36.8667 11.7565 36.8667C11.6401 36.9833 11.6401 37.1 11.6401 37.2167C11.6401 37.3333 11.7565 37.3333 11.8729 37.3333H11.9893C12.1057 37.2167 12.2221 37.1 12.1057 36.9833Z" fill="#9AAF57"/>
<path d="M14.0848 35.9333C13.9683 35.8167 13.8519 35.8167 13.7355 35.8167C13.6191 35.9333 13.6191 36.05 13.6191 36.1667C13.6191 36.2833 13.7355 36.2833 13.8519 36.2833H13.9683C14.0847 36.1667 14.0848 36.05 14.0848 35.9333Z" fill="#9AAF57"/>
<path d="M15.9471 34.7667C15.8307 34.65 15.7142 34.65 15.5978 34.65C15.4814 34.7667 15.4814 34.8833 15.4814 35C15.4814 35.1167 15.5978 35.1167 15.7142 35.1167H15.8307C15.9471 35 15.9471 34.8833 15.9471 34.7667Z" fill="#9AAF57"/>
<path d="M17.8094 33.7167C17.693 33.6 17.5766 33.6 17.4602 33.6C17.3438 33.7167 17.3438 33.8333 17.3438 33.95C17.3438 34.0667 17.4602 34.0667 17.5766 34.0667H17.693C17.8094 33.95 17.8094 33.8333 17.8094 33.7167Z" fill="#9AAF57"/>
<path d="M19.6717 32.55C19.5553 32.4333 19.4389 32.4333 19.3225 32.4333C19.2061 32.55 19.2061 32.6667 19.2061 32.7833C19.2061 32.9 19.3225 32.9 19.4389 32.9H19.5553C19.6717 32.7833 19.7881 32.6667 19.6717 32.55Z" fill="#9AAF57"/>
<path d="M21.5345 31.5C21.4181 31.3833 21.3017 31.3833 21.1853 31.3833C21.0688 31.5 21.0688 31.6167 21.0688 31.7333C21.0688 31.85 21.1852 31.85 21.3017 31.85H21.4181C21.5345 31.7333 21.6509 31.6167 21.5345 31.5Z" fill="#9AAF57"/>
<path d="M23.513 30.3333C23.3966 30.2167 23.2802 30.2167 23.1638 30.2167C23.0474 30.3333 23.0474 30.45 23.0474 30.5667C23.0474 30.6833 23.1638 30.6833 23.2802 30.6833H23.3966C23.513 30.5667 23.513 30.45 23.513 30.3333Z" fill="#9AAF57"/>
<path d="M25.3758 29.2833C25.2594 29.1667 25.143 29.1667 25.0266 29.1667C24.9102 29.2833 24.9102 29.4 24.9102 29.5167C24.9102 29.6333 25.0266 29.6333 25.143 29.6333H25.2594C25.3758 29.5167 25.3758 29.2833 25.3758 29.2833Z" fill="#9AAF57"/>
<path d="M27.2381 28.1167C27.1217 28 27.0053 28 26.8889 28C26.7725 28.1167 26.7725 28.2333 26.7725 28.35C26.7725 28.4667 26.8889 28.4667 27.0053 28.4667H27.1217C27.2381 28.35 27.3545 28.2333 27.2381 28.1167Z" fill="#9AAF57"/>
<path d="M29.1004 27.0667C29.1004 26.8333 28.984 26.8333 28.7512 26.95C28.6348 27.0667 28.6348 27.1833 28.6348 27.3C28.6348 27.4167 28.7512 27.4167 28.8676 27.4167H28.984C29.1004 27.3 29.2168 27.0667 29.1004 27.0667Z" fill="#9AAF57"/>
<path d="M30.9627 25.9C30.8463 25.7833 30.7299 25.7833 30.6135 25.7833C30.4971 25.9 30.4971 26.0167 30.4971 26.1333C30.4971 26.25 30.6135 26.25 30.7299 26.25H30.8463C31.0791 26.1333 31.0791 26.0167 30.9627 25.9Z" fill="#9AAF57"/>
<path d="M32.9417 24.7333C32.8253 24.6167 32.7089 24.6167 32.5925 24.6167C32.4761 24.7333 32.4761 24.85 32.4761 24.9667C32.4761 25.0833 32.5925 25.0833 32.7089 25.0833H32.8253C32.9417 25.0833 32.9417 24.85 32.9417 24.7333Z" fill="#9AAF57"/>
<path d="M34.8042 23.6833C34.6878 23.5667 34.5714 23.5667 34.455 23.5667H34.3386C34.2222 23.6833 34.2222 23.8 34.2222 23.9167C34.2222 24.0333 34.3386 24.0333 34.455 24.0333H34.5714C34.8042 23.9167 34.8042 23.8 34.8042 23.6833Z" fill="#9AAF57"/>
<path d="M36.6668 22.5167C36.5504 22.4 36.434 22.4 36.3176 22.4C36.2012 22.5167 36.2012 22.6333 36.2012 22.75C36.2012 22.8667 36.3176 22.8667 36.434 22.8667H36.5504C36.6668 22.8667 36.7832 22.6333 36.6668 22.5167Z" fill="#9AAF57"/>
<path d="M38.5291 21.4667C38.4127 21.35 38.2963 21.35 38.1799 21.35C38.0635 21.4667 38.0635 21.5833 38.0635 21.7C38.0635 21.8167 38.1799 21.8167 38.2963 21.8167H38.4127C38.5291 21.7 38.6455 21.5833 38.5291 21.4667Z" fill="#9AAF57"/>
<path d="M39.9257 20.65C39.9257 20.7667 40.0421 20.7667 40.1585 20.7667H40.2749C40.3913 20.65 40.3913 20.5333 40.3913 20.4167C40.2749 20.3 40.1585 20.3 40.0421 20.3C39.9257 20.3 39.8093 20.5333 39.9257 20.65Z" fill="#9AAF57"/>
<path d="M10.9417 35C10.8253 34.8833 10.7089 34.8833 10.5925 34.8833C10.4761 35 10.4761 35.1167 10.4761 35.2333C10.4761 35.35 10.5925 35.35 10.7089 35.35H10.8253C10.9417 35.2333 11.0581 35.1167 10.9417 35Z" fill="#9AAF57"/>
<path d="M12.804 33.8333C12.6876 33.7167 12.5712 33.7167 12.4548 33.7167C12.3384 33.8333 12.3384 33.95 12.3384 34.0667C12.3384 34.1833 12.4548 34.1833 12.5712 34.1833H12.6876C12.804 34.1833 12.9204 33.95 12.804 33.8333Z" fill="#9AAF57"/>
<path d="M14.783 32.7833C14.6666 32.6667 14.5502 32.6667 14.4338 32.6667C14.3174 32.7833 14.3174 32.9 14.3174 33.0167C14.3174 33.1333 14.4338 33.1333 14.5502 33.1333H14.6666C14.783 33.0167 14.783 32.9 14.783 32.7833Z" fill="#9AAF57"/>
<path d="M16.6453 31.6167C16.5289 31.5 16.4125 31.5 16.2961 31.5C16.1797 31.6167 16.1797 31.7333 16.1797 31.85C16.1797 31.9667 16.2961 31.9667 16.4125 31.9667H16.5289C16.6453 31.85 16.6453 31.7333 16.6453 31.6167Z" fill="#9AAF57"/>
<path d="M18.5076 30.5667C18.3912 30.45 18.2748 30.45 18.1584 30.45C18.042 30.5667 18.042 30.6833 18.042 30.8C18.042 30.9167 18.1584 30.9167 18.2748 30.9167H18.3912C18.5076 30.8 18.624 30.6833 18.5076 30.5667Z" fill="#9AAF57"/>
<path d="M20.3704 29.4C20.254 29.2833 20.1376 29.2833 20.0212 29.2833C19.9048 29.4 19.9048 29.5167 19.9048 29.6333C19.9048 29.75 20.0212 29.75 20.1376 29.75H20.254C20.3704 29.6333 20.4868 29.5167 20.3704 29.4Z" fill="#9AAF57"/>
<path d="M22.3489 28.35C22.2325 28.2333 22.1161 28.2333 21.9997 28.2333C21.8833 28.35 21.8833 28.4667 21.8833 28.5833C21.8833 28.7 21.9997 28.7 22.1161 28.7H22.2325C22.3489 28.5833 22.3489 28.4667 22.3489 28.35Z" fill="#9AAF57"/>
<path d="M24.2117 27.1833C24.0953 27.0667 23.9789 27.0667 23.8625 27.0667C23.7461 27.1833 23.7461 27.3 23.7461 27.4167C23.7461 27.5333 23.8625 27.5333 23.9789 27.5333H24.0953C24.2117 27.4167 24.2117 27.3 24.2117 27.1833Z" fill="#9AAF57"/>
<path d="M26.074 26.1333C25.9576 26.0167 25.8412 26.0167 25.7248 26.0167C25.6084 26.1333 25.6084 26.25 25.6084 26.3667C25.6084 26.4833 25.7248 26.4833 25.8412 26.4833H25.9576C26.074 26.3667 26.1904 26.25 26.074 26.1333Z" fill="#9AAF57"/>
<path d="M27.9363 24.9667C27.8199 24.85 27.7035 24.85 27.5871 24.85C27.4707 24.9667 27.4707 25.0833 27.4707 25.2C27.4707 25.3167 27.5871 25.3167 27.7035 25.3167H27.8199C27.9363 25.2 28.0527 25.0833 27.9363 24.9667Z" fill="#9AAF57"/>
<path d="M29.7986 23.9167C29.6822 23.8 29.5658 23.8 29.4494 23.8C29.333 23.9167 29.333 24.0333 29.333 24.15C29.333 24.2667 29.4494 24.2667 29.5658 24.2667H29.6822C29.7986 24.15 29.915 23.9167 29.7986 23.9167Z" fill="#9AAF57"/>
<path d="M31.7776 22.75C31.6612 22.6333 31.5448 22.6333 31.4284 22.6333C31.312 22.75 31.312 22.8667 31.312 22.9833C31.312 23.1 31.4284 23.1 31.5448 23.1H31.6612C31.7776 22.9833 31.7776 22.8667 31.7776 22.75Z" fill="#9AAF57"/>
<path d="M33.6399 21.7C33.5235 21.5833 33.4071 21.5833 33.2907 21.5833C33.1743 21.7 33.1743 21.8167 33.1743 21.9333C33.1743 22.05 33.2907 22.05 33.4071 22.05H33.5235C33.6399 21.9333 33.6399 21.7 33.6399 21.7Z" fill="#9AAF57"/>
<path d="M35.5027 20.5333C35.3863 20.4167 35.2699 20.4167 35.1535 20.4167C35.0371 20.5333 35.0371 20.65 35.0371 20.7667C35.0371 20.8833 35.1535 20.8833 35.2699 20.8833H35.3863C35.5027 20.7667 35.6191 20.65 35.5027 20.5333Z" fill="#9AAF57"/>
<path d="M37.365 19.4833C37.2486 19.3667 37.1322 19.3667 37.0158 19.3667C36.8994 19.4833 36.8994 19.6 36.8994 19.7167C36.8994 19.8333 37.0158 19.8333 37.1322 19.8333H37.2486C37.365 19.7167 37.4814 19.6 37.365 19.4833Z" fill="#9AAF57"/>
<path d="M38.7616 18.55C38.7616 18.6667 38.878 18.6667 38.9944 18.6667H39.1108C39.2272 18.55 39.2272 18.4333 39.2272 18.3167C39.2272 18.2 38.9944 18.2 38.878 18.2C38.7616 18.3167 38.6452 18.4333 38.7616 18.55Z" fill="#9AAF57"/>
<path d="M9.77762 32.9C9.66122 32.7833 9.54482 32.7833 9.42841 32.7833C9.31201 32.9 9.31201 33.1333 9.31201 33.25C9.31201 33.3667 9.42841 33.3667 9.54482 33.3667H9.66122C9.77762 33.25 9.77762 33.0167 9.77762 32.9Z" fill="#9AAF57"/>
<path d="M11.6399 31.85C11.5235 31.7333 11.4071 31.7333 11.2907 31.7333C11.1743 31.85 11.1743 31.9667 11.1743 32.0833C11.1743 32.2 11.2907 32.2 11.4071 32.2H11.5235C11.6399 32.0833 11.7563 31.9667 11.6399 31.85Z" fill="#9AAF57"/>
<path d="M13.5027 30.6833C13.3863 30.5667 13.2699 30.5667 13.1535 30.5667C13.0371 30.6833 13.0371 30.8 13.0371 30.9167C13.0371 31.0333 13.1535 31.0333 13.2699 31.0333H13.3863C13.6191 31.0333 13.6191 30.8 13.5027 30.6833Z" fill="#9AAF57"/>
<path d="M15.4812 29.6333C15.3648 29.5167 15.2484 29.5167 15.132 29.5167C15.0156 29.6333 15.0156 29.75 15.0156 29.8667C15.0156 29.9833 15.132 29.9833 15.2484 29.9833H15.3648C15.4812 29.8667 15.4812 29.75 15.4812 29.6333Z" fill="#9AAF57"/>
<path d="M17.3435 28.4667C17.2271 28.35 17.1107 28.35 16.9943 28.35C16.8779 28.4667 16.8779 28.5833 16.8779 28.7C16.8779 28.8167 16.9943 28.8167 17.1107 28.8167H17.2271C17.3435 28.8167 17.3435 28.5833 17.3435 28.4667Z" fill="#9AAF57"/>
<path d="M19.2063 27.4167C19.0899 27.3 18.9735 27.3 18.8571 27.3C18.7407 27.4167 18.7407 27.5333 18.7407 27.65C18.7407 27.7667 18.8571 27.7667 18.9735 27.7667H19.0899C19.2063 27.65 19.3227 27.5333 19.2063 27.4167Z" fill="#9AAF57"/>
<path d="M21.0686 26.25C20.9522 26.1333 20.8358 26.1333 20.7194 26.1333C20.603 26.25 20.603 26.3667 20.603 26.4833C20.603 26.6 20.7194 26.6 20.8358 26.6H20.9522C21.0686 26.6 21.185 26.3667 21.0686 26.25Z" fill="#9AAF57"/>
<path d="M23.0476 25.2C22.9312 25.0833 22.8148 25.0833 22.6984 25.0833C22.582 25.2 22.582 25.3167 22.582 25.4333C22.582 25.55 22.6984 25.55 22.8148 25.55H22.9312C23.0476 25.4333 23.0476 25.3167 23.0476 25.2Z" fill="#9AAF57"/>
<path d="M24.9099 24.0333C24.7935 23.9167 24.6771 23.9167 24.5607 23.9167C24.4443 24.0333 24.4443 24.15 24.4443 24.2667C24.4443 24.3833 24.5607 24.3833 24.6771 24.3833H24.7935C24.9099 24.3833 24.9099 24.15 24.9099 24.0333Z" fill="#9AAF57"/>
<path d="M26.7722 22.9833C26.6558 22.8667 26.5394 22.8667 26.423 22.8667C26.3066 22.9833 26.3066 23.1 26.3066 23.2167C26.3066 23.3333 26.423 23.3333 26.5394 23.3333H26.6558C26.7722 23.2167 26.8887 23.1 26.7722 22.9833Z" fill="#9AAF57"/>
<path d="M28.6346 21.8167C28.5182 21.7 28.4017 21.7 28.2853 21.7C28.1689 21.8167 28.1689 21.9333 28.1689 22.05C28.1689 22.1667 28.2853 22.1667 28.4017 22.1667H28.5182C28.6346 22.1667 28.751 21.9333 28.6346 21.8167Z" fill="#9AAF57"/>
<path d="M30.6137 20.7667C30.4973 20.65 30.3809 20.65 30.2645 20.65H30.1481C30.0317 20.7667 30.0317 20.8833 30.0317 21C30.0317 21.1167 30.1481 21.1167 30.2645 21.1167H30.3809C30.6138 21 30.6137 20.8833 30.6137 20.7667Z" fill="#9AAF57"/>
<path d="M32.4759 19.6C32.3595 19.4833 32.2431 19.4833 32.1267 19.4833C32.0103 19.6 32.0103 19.7167 32.0103 19.8333C32.0103 19.95 32.1267 19.95 32.2431 19.95H32.3595C32.4759 19.8333 32.4759 19.7167 32.4759 19.6Z" fill="#9AAF57"/>
<path d="M34.3385 18.55C34.2221 18.4333 34.1057 18.4333 33.9892 18.4333C33.7564 18.55 33.7564 18.6667 33.8728 18.7833C33.8728 18.9 33.9892 18.9 34.1056 18.9H34.2221C34.3385 18.7833 34.4549 18.6667 34.3385 18.55Z" fill="#9AAF57"/>
<path d="M36.201 17.3833C36.0846 17.2667 35.9682 17.2667 35.8518 17.2667C35.7353 17.3833 35.7354 17.5 35.7354 17.6167C35.7354 17.7333 35.8518 17.7333 35.9682 17.7333H36.0846C36.201 17.6167 36.3174 17.5 36.201 17.3833Z" fill="#9AAF57"/>
<path d="M37.5979 16.5667C37.5979 16.6833 37.7143 16.6833 37.8307 16.6833H37.9471C38.0636 16.5667 38.0636 16.45 38.0636 16.3333C37.9472 16.2167 37.8307 16.2167 37.7143 16.2167C37.4815 16.3333 37.4815 16.45 37.5979 16.5667Z" fill="#9AAF57"/>
<path d="M8.61343 30.9167C8.49703 30.8 8.38063 30.8 8.26423 30.8C8.14782 30.9167 8.03142 31.0333 8.14782 31.15C8.14782 31.2667 8.26423 31.2667 8.38063 31.2667H8.49703C8.61343 31.15 8.61343 31.0333 8.61343 30.9167Z" fill="#9AAF57"/>
<path d="M10.4759 29.8667C10.3595 29.75 10.2431 29.75 10.1267 29.75C10.0103 29.8667 10.0103 29.9833 10.0103 30.1C10.0103 30.2167 10.1267 30.2167 10.2431 30.2167H10.3595C10.4759 30.1 10.4759 29.9833 10.4759 29.8667Z" fill="#9AAF57"/>
<path d="M12.3382 28.7C12.2218 28.5833 12.1054 28.5833 11.989 28.5833C11.8726 28.7 11.8726 28.8167 11.8726 28.9333C11.8726 29.05 11.989 29.05 12.1054 29.05H12.2218C12.4546 28.9333 12.4546 28.8167 12.3382 28.7Z" fill="#9AAF57"/>
<path d="M14.201 27.65C14.0846 27.5333 13.9682 27.5333 13.8518 27.5333C13.7354 27.65 13.7354 27.7667 13.7354 27.8833C13.7354 28 13.8518 28 13.9682 28H14.0846C14.3174 27.8833 14.3174 27.65 14.201 27.65Z" fill="#9AAF57"/>
<path d="M16.0633 26.4833C15.9469 26.3667 15.8305 26.3667 15.7141 26.3667C15.5977 26.4833 15.5977 26.6 15.5977 26.7167C15.5977 26.8333 15.7141 26.8333 15.8305 26.8333H15.9469C16.1797 26.7167 16.1797 26.6 16.0633 26.4833Z" fill="#9AAF57"/>
<path d="M18.0418 25.4333C17.9254 25.3167 17.809 25.3167 17.6926 25.3167C17.5762 25.4333 17.5762 25.55 17.5762 25.6667C17.5762 25.7833 17.6926 25.7833 17.809 25.7833H17.9254C18.0418 25.6667 18.0418 25.4333 18.0418 25.4333Z" fill="#9AAF57"/>
<path d="M19.9046 24.2667C19.7882 24.15 19.6718 24.15 19.5554 24.15C19.439 24.2667 19.439 24.3833 19.439 24.5C19.439 24.6167 19.5554 24.6167 19.6718 24.6167H19.7882C19.9046 24.5 20.021 24.3833 19.9046 24.2667Z" fill="#9AAF57"/>
<path d="M21.7669 23.1C21.6505 22.9833 21.5341 22.9833 21.4177 22.9833C21.3013 23.1 21.3013 23.2167 21.3013 23.3333C21.3013 23.45 21.4177 23.45 21.5341 23.45H21.6505C21.8833 23.45 21.8833 23.2167 21.7669 23.1Z" fill="#9AAF57"/>
<path d="M23.6292 22.05C23.5128 21.9333 23.3964 21.9333 23.28 21.9333C23.1636 22.05 23.1636 22.1667 23.1636 22.2833C23.1636 22.4 23.28 22.4 23.3964 22.4H23.5128C23.7456 22.2833 23.7456 22.1667 23.6292 22.05Z" fill="#9AAF57"/>
<path d="M25.6082 20.8833C25.4918 20.7667 25.3754 20.7667 25.259 20.7667C25.1426 20.8833 25.1426 21 25.1426 21.1167C25.1426 21.2333 25.259 21.2333 25.3754 21.2333H25.4918C25.6082 21.2333 25.6082 21 25.6082 20.8833Z" fill="#9AAF57"/>
<path d="M27.4705 19.8333C27.3541 19.7167 27.2377 19.7167 27.1213 19.7167C27.0049 19.8333 27.0049 19.95 27.0049 20.0667C27.0049 20.1833 27.1213 20.1833 27.2377 20.1833H27.3541C27.4705 20.0667 27.5869 19.95 27.4705 19.8333Z" fill="#9AAF57"/>
<path d="M29.3328 18.6667C29.2164 18.55 29.1 18.55 28.9836 18.55C28.8672 18.6667 28.8672 18.7833 28.8672 18.9C28.8672 19.0167 28.9836 19.0167 29.1 19.0167H29.2164C29.3328 19.0167 29.4492 18.7833 29.3328 18.6667Z" fill="#9AAF57"/>
<path d="M31.1956 17.6167C31.0792 17.5 30.9628 17.5 30.8464 17.5C30.73 17.6167 30.73 17.7333 30.73 17.85C30.73 17.9667 30.8464 17.9667 30.9628 17.9667H31.0792C31.312 17.85 31.312 17.7333 31.1956 17.6167Z" fill="#9AAF57"/>
<path d="M33.1741 16.45C33.0577 16.3333 32.9413 16.3333 32.8249 16.3333C32.7085 16.45 32.7085 16.5667 32.7085 16.6833C32.7085 16.8 32.8249 16.8 32.9413 16.8H33.0577C33.1741 16.8 33.1741 16.5667 33.1741 16.45Z" fill="#9AAF57"/>
<path d="M35.0369 15.4C34.9205 15.2833 34.8041 15.2833 34.6877 15.2833C34.5713 15.4 34.5713 15.5167 34.5713 15.6333C34.5713 15.75 34.6877 15.75 34.8041 15.75H34.9205C35.0369 15.6333 35.0369 15.5167 35.0369 15.4Z" fill="#9AAF57"/>
<path d="M36.4334 14.5833C36.4334 14.7 36.5498 14.7 36.6662 14.7H36.7826C36.899 14.5833 36.899 14.4667 36.899 14.35C36.7826 14.2333 36.6662 14.2333 36.5498 14.2333C36.317 14.2333 36.317 14.4667 36.4334 14.5833Z" fill="#9AAF57"/>
<path d="M7.33307 28.9333C7.21667 28.8167 7.10027 28.8167 6.98386 28.8167C6.98386 28.9333 6.86746 29.05 6.98386 29.1667C6.98386 29.2833 7.10027 29.2833 7.21667 29.2833H7.33307C7.44947 29.1667 7.44947 29.05 7.33307 28.9333Z" fill="#9AAF57"/>
<path d="M9.3118 27.7667C9.1954 27.65 9.079 27.65 8.96259 27.65C8.84619 27.7667 8.84619 27.8833 8.84619 28C8.84619 28.1167 8.96259 28.1167 9.079 28.1167H9.1954C9.3118 28 9.3118 27.8833 9.3118 27.7667Z" fill="#9AAF57"/>
<path d="M11.1741 26.7167C11.0577 26.6 10.9413 26.6 10.8249 26.6C10.7085 26.7167 10.7085 26.8333 10.7085 26.95C10.7085 27.0667 10.8249 27.0667 10.9413 27.0667H11.0577C11.1741 26.95 11.1741 26.8333 11.1741 26.7167Z" fill="#9AAF57"/>
<path d="M13.0369 25.55C12.9205 25.4333 12.8041 25.4333 12.6877 25.4333C12.5713 25.55 12.5713 25.6667 12.5713 25.7833C12.5713 25.9 12.6877 25.9 12.8041 25.9H12.9205C13.0369 25.7833 13.1533 25.6667 13.0369 25.55Z" fill="#9AAF57"/>
<path d="M14.8992 24.5C14.7828 24.3833 14.6664 24.3833 14.55 24.3833C14.4336 24.5 14.4336 24.6167 14.4336 24.7333C14.4336 24.85 14.55 24.85 14.6664 24.85H14.7828C15.0156 24.7333 15.0156 24.6167 14.8992 24.5Z" fill="#9AAF57"/>
<path d="M16.878 23.3333C16.7616 23.2167 16.6452 23.2167 16.5288 23.2167C16.296 23.3333 16.296 23.45 16.4124 23.5667C16.4124 23.6833 16.5288 23.6833 16.6452 23.6833H16.7616C16.878 23.5667 16.878 23.45 16.878 23.3333Z" fill="#9AAF57"/>
<path d="M18.7407 22.2833C18.6243 22.1667 18.5079 22.05 18.3915 22.1667H18.2751C18.1587 22.2833 18.1587 22.4 18.1587 22.5167C18.1587 22.6333 18.2751 22.6333 18.3915 22.6333H18.5079C18.7407 22.5167 18.7407 22.2833 18.7407 22.2833Z" fill="#9AAF57"/>
<path d="M20.6028 21.1167C20.4864 21 20.37 21 20.2536 21C20.1372 21.1167 20.1372 21.2333 20.1372 21.35C20.1372 21.4667 20.2536 21.4667 20.37 21.4667H20.4864C20.7192 21.35 20.7192 21.2333 20.6028 21.1167Z" fill="#9AAF57"/>
<path d="M22.4651 20.0667C22.4651 19.8333 22.3487 19.8333 22.1159 19.95C21.9995 20.0667 21.9995 20.1833 21.9995 20.3C21.9995 20.4167 22.1159 20.4167 22.2323 20.4167H22.3487C22.5815 20.3 22.5815 20.0667 22.4651 20.0667Z" fill="#9AAF57"/>
<path d="M24.3279 18.9C24.2115 18.7833 24.0951 18.7833 23.9787 18.7833C23.8623 18.9 23.8623 19.0167 23.8623 19.1333C23.8623 19.25 23.9787 19.25 24.0951 19.25H24.2115C24.4443 19.1333 24.4443 19.0167 24.3279 18.9Z" fill="#9AAF57"/>
<path d="M26.3066 17.7333C26.1902 17.6167 26.0738 17.6167 25.9574 17.6167H25.841C25.7246 17.7333 25.7246 17.85 25.7246 17.9667C25.7246 18.0833 25.841 18.0833 25.9574 18.0833H26.0738C26.3066 18.0833 26.3066 17.85 26.3066 17.7333Z" fill="#9AAF57"/>
<path d="M28.1692 16.6833C28.0528 16.5667 27.9364 16.5667 27.82 16.5667C27.7036 16.6833 27.7036 16.8 27.7036 16.9167C27.7036 17.0333 27.82 17.0333 27.9364 17.0333H28.0528C28.1692 16.9167 28.1692 16.8 28.1692 16.6833Z" fill="#9AAF57"/>
<path d="M30.0315 15.5167C29.9151 15.4 29.7987 15.4 29.6823 15.4C29.5659 15.5167 29.5659 15.6333 29.5659 15.75C29.5659 15.8667 29.6823 15.8667 29.7987 15.8667H29.9151C30.1479 15.8667 30.1479 15.6333 30.0315 15.5167Z" fill="#9AAF57"/>
<path d="M31.8938 14.4667C31.7774 14.35 31.661 14.35 31.5446 14.35C31.4282 14.4667 31.4282 14.5833 31.4282 14.7C31.4282 14.8167 31.5446 14.8167 31.661 14.8167H31.7774C32.0102 14.7 32.0102 14.5833 31.8938 14.4667Z" fill="#9AAF57"/>
<path d="M33.7561 13.3C33.6397 13.1833 33.5233 13.1833 33.4069 13.1833C33.2905 13.3 33.2905 13.4167 33.2905 13.5333C33.2905 13.65 33.4069 13.65 33.5233 13.65H33.6397C33.8725 13.65 33.8725 13.4167 33.7561 13.3Z" fill="#9AAF57"/>
<path d="M35.1533 12.4833C35.1533 12.6 35.2697 12.6 35.3861 12.6H35.5025C35.6189 12.4833 35.6189 12.3667 35.6189 12.25C35.5025 12.1333 35.3861 12.1333 35.2697 12.1333C35.1533 12.25 35.1533 12.3667 35.1533 12.4833Z" fill="#9AAF57"/>
<path d="M6.16893 26.8333C6.05253 26.7167 5.93613 26.7167 5.81972 26.7167C5.70332 26.8333 5.70332 26.95 5.81972 27.0667C5.81972 27.1833 5.93613 27.1833 6.05253 27.1833H6.16893C6.16893 27.1833 6.28533 26.95 6.16893 26.8333Z" fill="#9AAF57"/>
<path d="M8.14774 25.7833C8.03134 25.6667 7.91493 25.55 7.79853 25.6667C7.68213 25.7833 7.68213 25.9 7.68213 26.0167C7.68213 26.1333 7.79853 26.1333 7.91493 26.1333H8.03134C8.14774 26.0167 8.14774 25.9 8.14774 25.7833Z" fill="#9AAF57"/>
<path d="M10.01 24.6167C9.89364 24.5 9.77724 24.5 9.66084 24.5C9.54443 24.6167 9.54443 24.7333 9.54443 24.85C9.54443 24.9667 9.66084 24.9667 9.77724 24.9667H9.89364C10.01 24.9667 10.01 24.7333 10.01 24.6167Z" fill="#9AAF57"/>
<path d="M11.8728 23.5667C11.7564 23.45 11.64 23.45 11.5236 23.45C11.4072 23.5667 11.4072 23.6833 11.4072 23.8C11.4072 23.9167 11.5236 23.9167 11.64 23.9167H11.7564C11.8728 23.8 11.9892 23.6833 11.8728 23.5667Z" fill="#9AAF57"/>
<path d="M13.7351 22.4C13.6187 22.2833 13.5023 22.2833 13.3859 22.2833C13.2695 22.4 13.2695 22.5167 13.2695 22.6333C13.2695 22.75 13.3859 22.75 13.5023 22.75H13.6187C13.7351 22.75 13.8515 22.5167 13.7351 22.4Z" fill="#9AAF57"/>
<path d="M15.5974 21.35C15.481 21.2333 15.3646 21.2333 15.2482 21.2333C15.1318 21.35 15.1318 21.4667 15.1318 21.5833C15.1318 21.7 15.2482 21.7 15.3646 21.7H15.481C15.7138 21.5833 15.7138 21.4667 15.5974 21.35Z" fill="#9AAF57"/>
<path d="M17.5764 20.1833C17.46 20.0667 17.3436 20.0667 17.2272 20.0667C17.1108 20.1833 17.1108 20.3 17.1108 20.4167C17.1108 20.5333 17.2272 20.5333 17.3436 20.5333H17.46C17.5764 20.5333 17.5764 20.3 17.5764 20.1833Z" fill="#9AAF57"/>
<path d="M19.4388 19.1333C19.3224 19.0167 19.2059 19.0167 19.0895 19.0167C18.9731 19.1333 18.9731 19.25 18.9731 19.3667C18.9731 19.4833 19.0895 19.4833 19.2059 19.4833H19.3224C19.4388 19.3667 19.4388 19.25 19.4388 19.1333Z" fill="#9AAF57"/>
<path d="M21.3011 17.9667C21.1847 17.85 21.0683 17.85 20.9519 17.85C20.8354 17.85 20.8354 18.0833 20.8354 18.2C20.8354 18.3167 20.9519 18.3167 21.0683 18.3167H21.1847C21.3011 18.2 21.4175 18.0833 21.3011 17.9667Z" fill="#9AAF57"/>
<path d="M23.1639 16.9167C23.0474 16.8 22.931 16.8 22.8146 16.8C22.6982 16.9167 22.6982 17.0333 22.6982 17.15C22.6982 17.2667 22.8146 17.2667 22.931 17.2667H23.0474C23.2803 17.15 23.2803 16.9167 23.1639 16.9167Z" fill="#9AAF57"/>
<path d="M25.1424 15.75C25.026 15.6333 24.9096 15.6333 24.7932 15.6333C24.6768 15.75 24.6768 15.8667 24.6768 15.9833C24.6768 16.1 24.7932 16.1 24.9096 16.1H25.026C25.1424 15.9833 25.1424 15.8667 25.1424 15.75Z" fill="#9AAF57"/>
<path d="M27.0052 14.7C26.8888 14.5833 26.7724 14.5833 26.656 14.5833C26.5396 14.7 26.5396 14.8167 26.5396 14.9333C26.5396 15.05 26.656 15.05 26.7724 15.05H26.8888C27.0052 14.9333 27.0052 14.7 27.0052 14.7Z" fill="#9AAF57"/>
<path d="M28.8675 13.5333C28.7511 13.4167 28.6347 13.4167 28.5183 13.4167C28.4019 13.5333 28.4019 13.65 28.4019 13.7667C28.4019 13.8833 28.5183 13.8833 28.6347 13.8833H28.7511C28.8675 13.7667 28.9839 13.65 28.8675 13.5333Z" fill="#9AAF57"/>
<path d="M30.7298 12.4833C30.6134 12.3667 30.497 12.3667 30.3806 12.3667C30.2642 12.4833 30.2642 12.6 30.2642 12.7167C30.2642 12.8333 30.3806 12.8333 30.497 12.8333H30.6134C30.8462 12.7167 30.8462 12.4833 30.7298 12.4833Z" fill="#9AAF57"/>
<path d="M32.5921 11.3167C32.4757 11.2 32.3593 11.2 32.2429 11.2C32.1265 11.3167 32.1265 11.4333 32.1265 11.55C32.1265 11.6667 32.2429 11.6667 32.3593 11.6667H32.4757C32.5921 11.55 32.7085 11.4333 32.5921 11.3167Z" fill="#9AAF57"/>
<path d="M33.9893 10.5C33.9893 10.6167 34.1057 10.6167 34.2221 10.6167H34.3385C34.4549 10.5 34.4549 10.3833 34.4549 10.2667C34.3385 10.15 34.2221 10.15 34.1057 10.15C33.9893 10.2667 33.9893 10.3833 33.9893 10.5Z" fill="#9AAF57"/>
<path d="M21.3015 39.7833C21.3015 39.6667 21.0687 39.55 20.9523 39.6667C20.8359 39.7833 20.8359 39.9 20.8359 40.0167C20.8359 40.1333 20.9523 40.1333 21.0687 40.1333H21.1851C21.418 40.0167 21.4179 39.9 21.3015 39.7833Z" fill="#9AAF57"/>
<path d="M23.2801 38.6167C23.1637 38.5 23.0473 38.5 22.9309 38.5C22.8145 38.6167 22.8145 38.7333 22.8145 38.85C22.8145 38.9667 22.9309 38.9667 23.0473 38.9667H23.1637C23.2801 38.85 23.2801 38.7333 23.2801 38.6167Z" fill="#9AAF57"/>
<path d="M25.1429 37.5667C25.0265 37.45 24.91 37.45 24.7936 37.45C24.6772 37.5667 24.6772 37.6833 24.6772 37.8C24.6772 37.9167 24.7936 37.9167 24.91 37.9167H25.0265C25.1429 37.8 25.2593 37.6833 25.1429 37.5667Z" fill="#9AAF57"/>
<path d="M27.0052 36.4C26.8888 36.2833 26.7724 36.2833 26.656 36.2833C26.5396 36.4 26.5396 36.5167 26.5396 36.6333C26.5396 36.75 26.656 36.75 26.7724 36.75H26.8888C27.0052 36.6333 27.1216 36.5167 27.0052 36.4Z" fill="#9AAF57"/>
<path d="M28.8675 35.35C28.7511 35.2333 28.6347 35.2333 28.5183 35.2333C28.4019 35.35 28.4019 35.4667 28.4019 35.5833C28.4019 35.7 28.5183 35.7 28.6347 35.7H28.7511C28.9839 35.5833 28.9839 35.4667 28.8675 35.35Z" fill="#9AAF57"/>
<path d="M30.8465 34.1833C30.7301 34.0667 30.6137 34.0667 30.4973 34.0667C30.3809 34.1833 30.3809 34.3 30.3809 34.4167C30.3809 34.5333 30.4973 34.5333 30.6137 34.5333H30.7301C30.8465 34.4167 30.8465 34.3 30.8465 34.1833Z" fill="#9AAF57"/>
<path d="M32.7088 33.1333C32.5924 33.0167 32.476 33.0167 32.3596 33.0167C32.2432 33.1333 32.2432 33.25 32.2432 33.3667C32.2432 33.4833 32.3596 33.4833 32.476 33.4833H32.5924C32.7088 33.3667 32.8252 33.25 32.7088 33.1333Z" fill="#9AAF57"/>
<path d="M34.5711 31.9667C34.4547 31.85 34.3383 31.85 34.2219 31.85C34.1055 31.9667 34.1055 32.0833 34.1055 32.2C34.1055 32.3167 34.2219 32.3167 34.3383 32.3167H34.4547C34.5711 32.2 34.6875 32.0833 34.5711 31.9667Z" fill="#9AAF57"/>
<path d="M36.4339 30.9167C36.3175 30.8 36.2011 30.8 36.0847 30.8C35.9683 30.9167 35.9683 31.0333 35.9683 31.15C35.9683 31.2667 36.0847 31.2667 36.2011 31.2667H36.3175C36.4339 31.15 36.5503 30.9167 36.4339 30.9167Z" fill="#9AAF57"/>
<path d="M38.4124 29.75C38.296 29.6333 38.1796 29.6333 38.0632 29.6333C37.9468 29.75 37.9468 29.8667 37.9468 29.9833C37.9468 30.1 38.0632 30.1 38.1796 30.1H38.296C38.4124 29.9833 38.4124 29.8667 38.4124 29.75Z" fill="#9AAF57"/>
<path d="M3.8411 22.8667C3.72469 22.75 3.60829 22.75 3.49189 22.75C3.37549 22.8667 3.37549 22.9833 3.37549 23.1C3.37549 23.2167 3.49189 23.2167 3.60829 23.2167H3.72469C3.8411 23.1 3.9575 22.9833 3.8411 22.8667Z" fill="#9AAF57"/>
<path d="M5.7034 21.7C5.587 21.5833 5.4706 21.5833 5.3542 21.5833C5.23779 21.7 5.23779 21.8167 5.23779 21.9333C5.23779 22.05 5.35419 22.05 5.4706 22.05H5.587C5.7034 21.9333 5.8198 21.8167 5.7034 21.7Z" fill="#9AAF57"/>
<path d="M7.5662 20.65C7.44979 20.5333 7.33339 20.5333 7.21699 20.5333C7.10059 20.65 7.10059 20.7667 7.10059 20.8833C7.21699 21 7.21699 21 7.33339 21H7.44979C7.6826 20.8833 7.6826 20.7667 7.5662 20.65Z" fill="#9AAF57"/>
<path d="M9.54471 19.4833C9.42831 19.3667 9.31191 19.3667 9.1955 19.3667C9.0791 19.4833 9.0791 19.6 9.0791 19.7167C9.0791 19.8333 9.1955 19.8333 9.31191 19.8333H9.42831C9.54471 19.7167 9.54471 19.6 9.54471 19.4833Z" fill="#9AAF57"/>
<path d="M11.407 18.4333C11.2906 18.3167 11.1742 18.3167 11.0578 18.3167C10.9414 18.4333 10.9414 18.55 10.9414 18.6667C10.9414 18.7833 11.0578 18.7833 11.1742 18.7833H11.2906C11.407 18.6667 11.5234 18.4333 11.407 18.4333Z" fill="#9AAF57"/>
<path d="M13.2697 17.2667C13.1533 17.15 13.0369 17.15 12.9205 17.15C12.8041 17.2667 12.6877 17.3833 12.8041 17.5C12.8041 17.6167 12.9205 17.6167 13.0369 17.6167H13.1533C13.2697 17.5 13.3861 17.3833 13.2697 17.2667Z" fill="#9AAF57"/>
<path d="M15.1321 16.2167C15.0157 16.1 14.8993 16.1 14.7829 16.1C14.6665 16.2167 14.6665 16.3333 14.6665 16.45C14.6665 16.5667 14.7829 16.5667 14.8993 16.5667H15.0157C15.2485 16.45 15.2485 16.2167 15.1321 16.2167Z" fill="#9AAF57"/>
<path d="M17.1111 15.05C16.9947 14.9333 16.8783 14.9333 16.7619 14.9333C16.6455 15.05 16.6455 15.1667 16.6455 15.2833C16.6455 15.4 16.7619 15.4 16.8783 15.4H16.9947C17.1111 15.2833 17.1111 15.1667 17.1111 15.05Z" fill="#9AAF57"/>
<path d="M18.9734 13.8833C18.857 13.7667 18.7406 13.7667 18.6242 13.7667C18.5078 13.8833 18.5078 14 18.5078 14.1167C18.5078 14.2333 18.6242 14.2333 18.7406 14.2333H18.857C18.9734 14.2333 19.0898 14 18.9734 13.8833Z" fill="#9AAF57"/>
<path d="M20.8357 12.8333C20.7193 12.7167 20.6029 12.7167 20.4865 12.7167C20.3701 12.8333 20.3701 12.95 20.3701 13.0667C20.3701 13.1833 20.4865 13.1833 20.6029 13.1833H20.7193C20.8357 13.0667 20.9521 12.95 20.8357 12.8333Z" fill="#9AAF57"/>
<path d="M22.698 11.6667C22.5816 11.55 22.4652 11.55 22.3488 11.55C22.2324 11.6667 22.2324 11.7833 22.2324 11.9C22.2324 12.0167 22.3488 12.0167 22.4652 12.0167H22.5816C22.698 12.0167 22.8144 11.7833 22.698 11.6667Z" fill="#9AAF57"/>
<path d="M24.677 10.6167C24.5606 10.5 24.4442 10.3833 24.3278 10.5C24.2114 10.6167 24.2114 10.7333 24.2114 10.85C24.2114 10.9667 24.3278 10.9667 24.4442 10.9667H24.5606C24.677 10.85 24.677 10.7333 24.677 10.6167Z" fill="#9AAF57"/>
<path d="M26.5393 9.45C26.4229 9.33334 26.3065 9.33334 26.1901 9.33334C26.0737 9.45 26.0737 9.56667 26.0737 9.68334C26.0737 9.8 26.1901 9.8 26.3065 9.8H26.4229C26.5393 9.8 26.5393 9.56667 26.5393 9.45Z" fill="#9AAF57"/>
<path d="M28.402 8.4C28.2856 8.28334 28.1692 8.28334 28.0528 8.28334C27.9364 8.4 27.82 8.51667 27.9364 8.63334C27.9364 8.75 28.0528 8.75 28.1692 8.75H28.2856C28.402 8.63334 28.5184 8.51667 28.402 8.4Z" fill="#9AAF57"/>
<path d="M30.2644 7.23334C30.148 7.11667 30.0316 7.11667 29.9152 7.11667C29.7988 7.23334 29.7988 7.35 29.7988 7.46667C29.7988 7.58334 29.9152 7.58334 30.0316 7.58334H30.148C30.2644 7.58334 30.3808 7.35 30.2644 7.23334Z" fill="#9AAF57"/>
<path d="M31.6614 6.41667C31.6614 6.53334 31.7778 6.53334 31.8942 6.53334H32.0106C32.127 6.41667 32.127 6.3 32.127 6.18334C32.0106 6.06667 31.8942 6.06667 31.7778 6.06667C31.545 6.18334 31.545 6.3 31.6614 6.41667Z" fill="#9AAF57"/>
<path d="M2.67703 20.7667C2.56063 20.65 2.44423 20.65 2.32783 20.65C2.21143 20.7667 2.21143 20.8833 2.21143 21C2.21143 21.1167 2.32783 21.1167 2.44423 21.1167H2.56063C2.67703 21.1167 2.67703 20.8833 2.67703 20.7667Z" fill="#9AAF57"/>
<path d="M4.53934 19.7167C4.42294 19.6 4.30653 19.6 4.19013 19.6C4.07373 19.7167 4.07373 19.8333 4.07373 19.95C4.07373 20.0667 4.19013 20.0667 4.30654 20.0667H4.42294C4.53934 19.95 4.53934 19.8333 4.53934 19.7167Z" fill="#9AAF57"/>
<path d="M6.40213 18.55C6.28573 18.4333 6.16933 18.4333 6.05293 18.4333C5.93652 18.55 5.93652 18.6667 5.93652 18.7833C5.93652 18.9 6.05293 18.9 6.16933 18.9H6.28573C6.51853 18.9 6.51853 18.6667 6.40213 18.55Z" fill="#9AAF57"/>
<path d="M8.26444 17.5C8.14803 17.3833 8.03163 17.3833 7.91523 17.3833C7.79883 17.5 7.79883 17.6167 7.79883 17.7333C7.79883 17.85 7.91523 17.85 8.03163 17.85H8.14804C8.38084 17.7333 8.38084 17.6167 8.26444 17.5Z" fill="#9AAF57"/>
<path d="M10.243 16.3333C10.1266 16.2167 10.0101 16.2167 9.89375 16.2167C9.77734 16.3333 9.77734 16.45 9.77734 16.5667C9.77734 16.6833 9.89375 16.6833 10.0101 16.6833H10.1266C10.243 16.5667 10.243 16.45 10.243 16.3333Z" fill="#9AAF57"/>
<path d="M12.1057 15.2833C11.9893 15.1667 11.8729 15.1667 11.7565 15.1667C11.6401 15.2833 11.6401 15.4 11.6401 15.5167C11.6401 15.6333 11.7565 15.6333 11.8729 15.6333H11.9893C12.1057 15.5167 12.1057 15.4 12.1057 15.2833Z" fill="#9AAF57"/>
<path d="M13.968 14.1167C13.8516 14 13.7352 14 13.6188 14C13.5024 14.1167 13.5024 14.2333 13.5024 14.35C13.5024 14.4667 13.6188 14.4667 13.7352 14.4667H13.8516C14.0845 14.35 14.0845 14.2333 13.968 14.1167Z" fill="#9AAF57"/>
<path d="M15.8304 13.0667C15.714 12.95 15.5976 12.95 15.4811 12.95C15.3647 13.0667 15.3647 13.1833 15.3647 13.3C15.3647 13.4167 15.4811 13.4167 15.5976 13.4167H15.714C15.9468 13.3 15.9468 13.0667 15.8304 13.0667Z" fill="#9AAF57"/>
<path d="M17.8094 11.9C17.693 11.7833 17.5766 11.7833 17.4602 11.7833C17.3438 11.9 17.3438 12.0167 17.3438 12.1333C17.3438 12.25 17.4602 12.25 17.5766 12.25H17.693C17.8094 12.1333 17.8094 12.0167 17.8094 11.9Z" fill="#9AAF57"/>
<path d="M19.6717 10.85C19.5553 10.7333 19.4389 10.7333 19.3225 10.7333C19.2061 10.85 19.2061 10.9667 19.2061 11.0833C19.2061 11.2 19.3225 11.2 19.4389 11.2H19.5553C19.6717 11.0833 19.6717 10.85 19.6717 10.85Z" fill="#9AAF57"/>
<path d="M21.534 9.68334C21.4176 9.56667 21.3012 9.56667 21.1848 9.56667C21.0684 9.68334 21.0684 9.8 21.0684 9.91667C21.0684 10.0333 21.1848 10.0333 21.3012 10.0333H21.4176C21.534 9.91667 21.6504 9.8 21.534 9.68334Z" fill="#9AAF57"/>
<path d="M23.3968 8.51667C23.2804 8.4 23.164 8.4 23.0476 8.4C22.9312 8.51667 22.9312 8.63334 22.9312 8.75C22.9312 8.86667 23.0476 8.86667 23.164 8.86667H23.2804C23.5132 8.86667 23.5132 8.63334 23.3968 8.51667Z" fill="#9AAF57"/>
<path d="M25.3753 7.46667C25.2589 7.35 25.1425 7.35 25.0261 7.35C24.9097 7.46667 24.9097 7.58334 24.9097 7.7C24.9097 7.81667 25.0261 7.81667 25.1425 7.81667H25.2589C25.3753 7.7 25.3753 7.58334 25.3753 7.46667Z" fill="#9AAF57"/>
<path d="M27.2379 6.3C27.1215 6.18333 27.0051 6.18333 26.8887 6.18333C26.7723 6.41667 26.6559 6.53333 26.7723 6.65C26.7723 6.76667 26.8887 6.76667 27.0051 6.76667H27.1215C27.2379 6.65 27.3543 6.41667 27.2379 6.3Z" fill="#9AAF57"/>
<path d="M29.1004 5.25C28.984 5.13334 28.8676 5.13334 28.7512 5.13334C28.6348 5.25 28.6348 5.36667 28.6348 5.48333C28.6348 5.6 28.7512 5.6 28.8676 5.6H28.984C29.1004 5.48334 29.1004 5.36667 29.1004 5.25Z" fill="#9AAF57"/>
<path d="M30.4974 4.43334C30.4974 4.55 30.6138 4.55 30.7302 4.55H30.8466C30.963 4.43334 30.963 4.31667 30.963 4.2C30.8466 4.08334 30.7302 4.08334 30.6138 4.08334C30.381 4.2 30.381 4.31667 30.4974 4.43334Z" fill="#9AAF57"/>
<path d="M3.37528 17.6167C3.25887 17.5 3.14247 17.5 3.02607 17.5C2.90967 17.6167 2.90967 17.7333 2.90967 17.85C2.90967 17.9667 3.02607 17.9667 3.14247 17.9667H3.25887C3.37528 17.9667 3.37528 17.7333 3.37528 17.6167Z" fill="#9AAF57"/>
<path d="M5.23807 16.5667C5.12167 16.45 5.00527 16.45 4.88886 16.45C4.77246 16.5667 4.77246 16.6833 4.77246 16.8C4.77246 16.9167 4.88886 16.9167 5.00527 16.9167H5.12167C5.23807 16.8 5.35447 16.6833 5.23807 16.5667Z" fill="#9AAF57"/>
<path d="M7.10037 15.4C6.98397 15.2833 6.86757 15.2833 6.75117 15.2833C6.63477 15.4 6.63477 15.5167 6.63477 15.6333C6.63477 15.75 6.75117 15.75 6.86757 15.75H6.98397C7.21678 15.75 7.21678 15.5167 7.10037 15.4Z" fill="#9AAF57"/>
<path d="M8.96268 14.35C8.84628 14.2333 8.72987 14.2333 8.61347 14.2333C8.49707 14.35 8.49707 14.4667 8.49707 14.5833C8.49707 14.7 8.61347 14.7 8.72987 14.7H8.84628C9.07908 14.5833 9.07908 14.4667 8.96268 14.35Z" fill="#9AAF57"/>
<path d="M10.9417 13.1833C10.8253 13.0667 10.7089 13.0667 10.5925 13.0667C10.4761 13.1833 10.4761 13.3 10.4761 13.4167C10.4761 13.5333 10.5925 13.5333 10.7089 13.5333H10.8253C10.9417 13.5333 10.9417 13.3 10.9417 13.1833Z" fill="#9AAF57"/>
<path d="M12.804 12.1333C12.6876 12.0167 12.5712 12.0167 12.4548 12.0167C12.3384 12.1333 12.3384 12.25 12.3384 12.3667C12.3384 12.4833 12.4548 12.4833 12.5712 12.4833H12.6876C12.804 12.3667 12.804 12.25 12.804 12.1333Z" fill="#9AAF57"/>
<path d="M14.6663 10.9667C14.5499 10.85 14.4335 10.85 14.3171 10.85C14.2007 10.9667 14.2007 11.0833 14.2007 11.2C14.2007 11.3167 14.3171 11.3167 14.4335 11.3167H14.5499C14.7827 11.3167 14.7827 11.0833 14.6663 10.9667Z" fill="#9AAF57"/>
<path d="M16.5291 9.91667C16.4127 9.8 16.2963 9.8 16.1799 9.8C16.0635 9.91667 16.0635 10.0333 16.0635 10.15C16.0635 10.2667 16.1799 10.2667 16.2963 10.2667H16.4127C16.6455 10.15 16.6455 10.0333 16.5291 9.91667Z" fill="#9AAF57"/>
<path d="M18.5076 8.75001C18.3912 8.63334 18.2748 8.63334 18.1584 8.63334C18.042 8.75001 18.042 8.86667 18.042 8.98334C18.042 9.10001 18.1584 9.10001 18.2748 9.10001H18.3912C18.5076 9.10001 18.5076 8.86667 18.5076 8.75001Z" fill="#9AAF57"/>
<path d="M20.3699 7.7C20.2535 7.58334 20.1371 7.58334 20.0207 7.58334C19.9043 7.7 19.9043 7.81667 19.9043 7.93334C19.9043 8.05 20.0207 8.05 20.1371 8.05H20.2535C20.3699 7.93334 20.3699 7.7 20.3699 7.7Z" fill="#9AAF57"/>
<path d="M22.2327 6.53334C22.1163 6.41667 21.9999 6.41667 21.8835 6.41667C21.7671 6.53334 21.7671 6.65001 21.7671 6.76667C21.7671 6.88334 21.8835 6.88334 21.9999 6.88334H22.1163C22.3491 6.88334 22.3491 6.65 22.2327 6.53334Z" fill="#9AAF57"/>
<path d="M24.095 5.48334C23.9786 5.36667 23.8622 5.36667 23.7458 5.36667C23.6294 5.48334 23.6294 5.6 23.6294 5.71667C23.7458 5.83334 23.7458 5.83334 23.8622 5.83334H23.9786C24.2114 5.71667 24.2114 5.48334 24.095 5.48334Z" fill="#9AAF57"/>
<path d="M25.9573 4.31667C25.8409 4.2 25.7245 4.2 25.6081 4.2C25.4917 4.31667 25.4917 4.43334 25.4917 4.55C25.4917 4.66667 25.6081 4.66667 25.7245 4.66667H25.8409C26.0737 4.55 26.0737 4.43334 25.9573 4.31667Z" fill="#9AAF57"/>
<path d="M27.9363 3.26667C27.8199 3.15001 27.7035 3.15001 27.5871 3.15001C27.4707 3.26667 27.4707 3.38334 27.4707 3.50001C27.4707 3.61667 27.5871 3.61667 27.7035 3.61667H27.8199C27.9363 3.50001 27.9363 3.38334 27.9363 3.26667Z" fill="#9AAF57"/>
<path d="M29.3333 2.33334C29.3333 2.45 29.4497 2.45 29.5661 2.45H29.6825C29.7989 2.33334 29.7989 2.21667 29.7989 2.1C29.6825 1.98334 29.5661 1.98334 29.4497 1.98334C29.2169 2.1 29.2169 2.21667 29.3333 2.33334Z" fill="#9AAF57"/>
<path d="M2.21121 15.6333C2.09481 15.5167 1.97841 15.5167 1.86201 15.5167C1.74561 15.5167 1.74561 15.75 1.74561 15.8667C1.74561 15.9833 1.86201 15.9833 1.97841 15.9833H2.09481C2.21121 15.8667 2.21121 15.75 2.21121 15.6333Z" fill="#9AAF57"/>
<path d="M4.07381 14.5833C4.07381 14.4667 3.841 14.4667 3.7246 14.4667C3.4918 14.5833 3.4918 14.7 3.6082 14.8167C3.6082 14.9333 3.7246 14.9333 3.841 14.9333H3.9574C4.07381 14.8167 4.19021 14.5833 4.07381 14.5833Z" fill="#9AAF57"/>
<path d="M5.93631 13.4167C5.81991 13.3 5.70351 13.3 5.58711 13.3C5.4707 13.4167 5.4707 13.5333 5.4707 13.65C5.4707 13.7667 5.58711 13.7667 5.70351 13.7667H5.81991C5.93631 13.65 6.05271 13.5333 5.93631 13.4167Z" fill="#9AAF57"/>
<path d="M7.79862 12.25C7.68221 12.1333 7.56581 12.1333 7.44941 12.1333C7.33301 12.25 7.33301 12.3667 7.33301 12.4833C7.33301 12.6 7.44941 12.6 7.56581 12.6H7.68221C7.91502 12.6 7.91502 12.3667 7.79862 12.25Z" fill="#9AAF57"/>
<path d="M9.77742 11.2C9.66102 11.0833 9.54462 10.9667 9.42821 11.0833C9.19541 11.2 9.19541 11.3167 9.31181 11.4333C9.31181 11.55 9.42821 11.55 9.54461 11.55H9.66102C9.77742 11.4333 9.77742 11.3167 9.77742 11.2Z" fill="#9AAF57"/>
<path d="M11.6397 10.0333C11.5233 9.91667 11.4069 9.91667 11.2905 9.91667C11.0577 10.15 11.0577 10.2667 11.1741 10.3833C11.1741 10.3833 11.2905 10.5 11.4069 10.5H11.5233C11.6397 10.3833 11.6397 10.15 11.6397 10.0333Z" fill="#9AAF57"/>
<path d="M13.5022 8.98334C13.3858 8.86667 13.2694 8.86667 13.153 8.86667C13.0366 8.98334 13.0366 9.1 13.0366 9.21667C13.153 9.33334 13.153 9.33334 13.2694 9.33334H13.3858C13.5022 9.21667 13.6186 9.1 13.5022 8.98334Z" fill="#9AAF57"/>
<path d="M15.365 7.81667C15.2486 7.7 15.1322 7.7 15.0158 7.7C14.8994 7.81667 14.8994 7.93334 14.8994 8.05C14.8994 8.16667 15.0158 8.16667 15.1322 8.16667H15.2486C15.4814 8.16667 15.4814 7.93334 15.365 7.81667Z" fill="#9AAF57"/>
<path d="M17.2273 6.76667C17.1109 6.65 16.9945 6.65 16.8781 6.65C16.7617 6.76667 16.7617 6.88334 16.7617 7C16.7617 7.11667 16.8781 7.11667 16.9945 7.11667H17.1109C17.3437 7 17.3437 6.88334 17.2273 6.76667Z" fill="#9AAF57"/>
<path d="M19.2061 5.6C19.0897 5.48334 18.9733 5.48334 18.8569 5.48334C18.6241 5.6 18.6241 5.83334 18.7405 5.95C18.7405 6.06667 18.8569 6.06667 18.9733 6.06667H19.0897C19.2061 5.95 19.2061 5.71667 19.2061 5.6Z" fill="#9AAF57"/>
<path d="M21.0686 4.55C20.9522 4.43334 20.8358 4.43334 20.7194 4.43334C20.603 4.55 20.603 4.66667 20.603 4.78334C20.603 4.9 20.7194 4.9 20.8358 4.9H20.9522C21.0686 4.78334 21.0686 4.66667 21.0686 4.55Z" fill="#9AAF57"/>
<path d="M22.9309 3.38334C22.8145 3.26667 22.6981 3.26667 22.5817 3.26667C22.4653 3.38334 22.4653 3.5 22.4653 3.61667C22.4653 3.73334 22.5817 3.73334 22.6981 3.73334H22.8145C23.0473 3.73334 23.0473 3.5 22.9309 3.38334Z" fill="#9AAF57"/>
<path d="M24.7932 2.33334C24.6768 2.21667 24.5604 2.21667 24.444 2.21667C24.3276 2.33334 24.3276 2.45 24.3276 2.56667C24.3276 2.68334 24.444 2.68334 24.5604 2.68334H24.6768C24.9096 2.56667 24.9096 2.45 24.7932 2.33334Z" fill="#9AAF57"/>
<path d="M2.90974 12.4833C2.79334 12.3667 2.67694 12.3667 2.56054 12.3667C2.32773 12.4833 2.32773 12.6 2.44414 12.7167C2.44414 12.8333 2.56054 12.8333 2.67694 12.8333H2.79334C2.90974 12.7167 2.90974 12.6 2.90974 12.4833Z" fill="#9AAF57"/>
<path d="M4.77212 11.4333C4.65572 11.3167 4.53932 11.2 4.42292 11.3167C4.30652 11.4333 4.19011 11.55 4.30652 11.6667C4.30652 11.7833 4.42292 11.7833 4.53932 11.7833H4.65572C4.77213 11.6667 4.88853 11.4333 4.77212 11.4333Z" fill="#9AAF57"/>
<path d="M6.63492 10.2667C6.51852 10.15 6.40211 10.15 6.28571 10.15C6.16931 10.2667 6.05291 10.3833 6.16931 10.5C6.16931 10.6167 6.28571 10.6167 6.40211 10.6167H6.51852C6.63492 10.5 6.75132 10.3833 6.63492 10.2667Z" fill="#9AAF57"/>
<path d="M8.61385 9.21667C8.49744 9.1 8.38104 8.98334 8.26464 9.1C8.03183 9.21667 8.03183 9.33334 8.14824 9.45C8.14824 9.56667 8.26464 9.56667 8.38104 9.56667H8.49744C8.61385 9.45 8.61385 9.21667 8.61385 9.21667Z" fill="#9AAF57"/>
<path d="M10.4762 8.05001C10.3597 7.93334 10.2433 7.81667 10.1269 7.93334C9.89414 8.05001 9.89414 8.16667 10.0105 8.28334C10.0105 8.4 10.1269 8.4 10.2433 8.4H10.3597C10.4761 8.28334 10.4762 8.16667 10.4762 8.05001Z" fill="#9AAF57"/>
<path d="M12.3387 6.88334C12.2223 6.76667 12.1059 6.76667 11.9894 6.76667C11.873 6.88334 11.873 7 11.873 7.11667C11.873 7.23334 11.9894 7.23334 12.1059 7.23334H12.2223C12.3387 7.23334 12.4551 7 12.3387 6.88334Z" fill="#9AAF57"/>
<path d="M14.201 5.83334C14.0846 5.71667 13.9682 5.71667 13.8518 5.71667C13.7354 5.71667 13.7354 5.95 13.7354 6.06667C13.7354 6.18334 13.8518 6.18334 13.9682 6.18334H14.0846C14.201 6.06667 14.3174 5.95 14.201 5.83334Z" fill="#9AAF57"/>
<path d="M16.0633 4.66667C15.9469 4.55 15.8305 4.55 15.7141 4.55C15.5977 4.66667 15.5977 4.78334 15.5977 4.9C15.5977 5.01667 15.7141 5.01667 15.8305 5.01667H15.9469C16.0633 5.01667 16.1797 4.78334 16.0633 4.66667Z" fill="#9AAF57"/>
<path d="M18.0421 3.61667C17.9257 3.5 17.8093 3.38334 17.6929 3.5C17.4601 3.61667 17.4601 3.73334 17.5765 3.85C17.5765 3.96667 17.6929 3.96667 17.8093 3.96667H17.9257C18.0421 3.85 18.0421 3.73334 18.0421 3.61667Z" fill="#9AAF57"/>
<path d="M19.9046 2.45C19.7882 2.33334 19.6718 2.33334 19.5554 2.33334C19.439 2.45 19.439 2.56667 19.439 2.68334C19.439 2.8 19.5554 2.8 19.6718 2.8H19.7882C19.9046 2.8 19.9046 2.56667 19.9046 2.45Z" fill="#9AAF57"/>
<path d="M5.00516 24.85C4.88876 24.7333 4.77236 24.7333 4.65595 24.7333C4.53955 24.85 4.53955 24.9667 4.53955 25.0833C4.53955 25.2 4.65595 25.2 4.77236 25.2H4.88876C5.00516 25.0833 5.12156 24.9667 5.00516 24.85Z" fill="#9AAF57"/>
<path d="M6.98416 23.8C6.86776 23.6833 6.75136 23.6833 6.63496 23.6833C6.51855 23.8 6.51855 23.9167 6.51855 24.0333C6.51855 24.15 6.63496 24.15 6.75136 24.15H6.86776C6.98416 24.0333 6.98416 23.8 6.98416 23.8Z" fill="#9AAF57"/>
<path d="M8.84647 22.6333C8.73007 22.5167 8.61366 22.5167 8.49726 22.5167C8.38086 22.6333 8.38086 22.75 8.38086 22.8667C8.38086 22.9833 8.49726 22.9833 8.61366 22.9833H8.73007C8.84647 22.8667 8.84647 22.75 8.84647 22.6333Z" fill="#9AAF57"/>
<path d="M10.7088 21.4667C10.5924 21.35 10.476 21.35 10.3596 21.35C10.2432 21.4667 10.2432 21.5833 10.2432 21.7C10.2432 21.8167 10.3596 21.8167 10.476 21.8167H10.5924C10.7088 21.8167 10.8252 21.5833 10.7088 21.4667Z" fill="#9AAF57"/>
<path d="M12.5711 20.4167C12.4547 20.3 12.3383 20.3 12.2219 20.3C12.1055 20.4167 12.1055 20.5333 12.1055 20.65C12.1055 20.7667 12.2219 20.7667 12.3383 20.7667H12.4547C12.5711 20.65 12.6875 20.5333 12.5711 20.4167Z" fill="#9AAF57"/>
<path d="M14.4339 19.25C14.3175 19.1333 14.2011 19.1333 14.0847 19.1333C13.9683 19.25 13.9683 19.3667 13.9683 19.4833C13.9683 19.6 14.0847 19.6 14.2011 19.6H14.3175C14.4339 19.6 14.5503 19.3667 14.4339 19.25Z" fill="#9AAF57"/>
<path d="M16.4124 18.2C16.296 18.0833 16.1796 18.0833 16.0632 18.0833C15.9468 18.2 15.9468 18.3167 15.9468 18.4333C15.9468 18.55 16.0632 18.55 16.1796 18.55H16.296C16.4124 18.4333 16.4124 18.3167 16.4124 18.2Z" fill="#9AAF57"/>
<path d="M18.2752 17.0333C18.1588 16.9167 18.0424 16.9167 17.926 16.9167C17.8096 17.0333 17.8096 17.15 17.8096 17.2667C17.8096 17.3833 17.926 17.3833 18.0424 17.3833H18.1588C18.2752 17.3833 18.2752 17.15 18.2752 17.0333Z" fill="#9AAF57"/>
<path d="M20.1375 15.9833C20.0211 15.8667 19.9047 15.8667 19.7883 15.8667C19.6719 15.9833 19.6719 16.1 19.6719 16.2167C19.6719 16.3333 19.7883 16.3333 19.9047 16.3333H20.0211C20.1375 16.2167 20.2539 16.1 20.1375 15.9833Z" fill="#9AAF57"/>
<path d="M22 14.8167C21.8836 14.7 21.7672 14.7 21.6508 14.7H21.5344C21.418 14.8167 21.418 14.9333 21.418 15.05C21.418 15.1667 21.5344 15.1667 21.6508 15.1667H21.7672C22 15.1667 22.1164 14.9333 22 14.8167Z" fill="#9AAF57"/>
<path d="M23.8621 13.7667C23.7457 13.65 23.6293 13.65 23.5129 13.65C23.3965 13.7667 23.3965 13.8833 23.3965 14C23.3965 14.1167 23.5129 14.1167 23.6293 14.1167H23.7457C23.9785 14 23.9785 13.8833 23.8621 13.7667Z" fill="#9AAF57"/>
<path d="M25.8411 12.6C25.7247 12.4833 25.6083 12.4833 25.4919 12.4833C25.3755 12.6 25.3755 12.7167 25.3755 12.8333C25.3755 12.95 25.4919 12.95 25.6083 12.95H25.7247C25.8411 12.95 25.8411 12.7167 25.8411 12.6Z" fill="#9AAF57"/>
<path d="M27.7034 11.55C27.587 11.4333 27.4706 11.4333 27.3542 11.4333C27.2378 11.55 27.2378 11.6667 27.2378 11.7833C27.2378 11.9 27.3542 11.9 27.4706 11.9H27.587C27.7034 11.7833 27.7034 11.6667 27.7034 11.55Z" fill="#9AAF57"/>
<path d="M29.5662 10.3833C29.4498 10.2667 29.3334 10.2667 29.217 10.2667C29.1006 10.3833 29.1006 10.5 29.1006 10.7333C29.1006 10.85 29.217 10.85 29.3334 10.85H29.4498C29.5662 10.7333 29.6826 10.5 29.5662 10.3833Z" fill="#9AAF57"/>
<path d="M31.4285 9.33334C31.3121 9.21667 31.1957 9.21667 31.0793 9.21667C30.9629 9.33334 30.9629 9.45 30.9629 9.56667C30.9629 9.68334 31.0793 9.68334 31.1957 9.68334H31.3121C31.4285 9.56667 31.5449 9.45 31.4285 9.33334Z" fill="#9AAF57"/>
<path d="M32.8252 8.51667C32.8252 8.63334 32.9416 8.63334 33.058 8.63334H33.1744C33.2908 8.51667 33.2908 8.4 33.2908 8.28334C33.1744 8.16667 33.058 8.16667 32.9416 8.16667C32.8252 8.16667 32.8252 8.28334 32.8252 8.51667Z" fill="#9AAF57"/>
</g>
<mask id="mask1_2166_7660" style="mask-type:luminance" maskUnits="userSpaceOnUse" x="7" y="7" width="27" height="28">
<path d="M20.9526 34.0667C28.1527 34.0667 33.9896 28.2165 33.9896 21C33.9896 13.7835 28.1527 7.93333 20.9526 7.93333C13.7524 7.93333 7.91553 13.7835 7.91553 21C7.91553 28.2165 13.7524 34.0667 20.9526 34.0667Z" fill="white"/>
</mask>
<g mask="url(#mask1_2166_7660)">
<path d="M43.4182 20.1833L34.5716 29.05L13.27 7.7L22.1166 -1.16667L43.4182 20.1833Z" fill="url(#paint1_linear_2166_7660)"/>
</g>
<path d="M161.915 12.95V6.65H162.846L164.825 9.8C165.291 10.5 165.64 11.2 165.989 11.9C165.873 11.0833 165.873 10.2667 165.873 9.33333V6.76666H166.571V12.95H165.756L163.777 9.8C163.312 9.1 162.963 8.4 162.613 7.7C162.613 8.51666 162.73 9.21666 162.73 10.2667V12.95H161.915Z" fill="#707070"/>
<path d="M173.323 9.68333C173.323 11.7833 172.042 12.95 170.413 12.95C168.783 12.95 167.619 11.6667 167.619 9.8C167.619 7.81667 168.783 6.53333 170.529 6.53333C172.159 6.53333 173.323 7.81667 173.323 9.68333ZM168.434 9.8C168.434 11.0833 169.132 12.3667 170.413 12.3667C171.693 12.3667 172.392 11.2 172.392 9.8C172.392 8.51667 171.693 7.23333 170.413 7.23333C169.132 7.23333 168.434 8.51667 168.434 9.8Z" fill="#707070"/>
<path d="M174.37 12.95V6.65H175.301L177.28 9.8C177.746 10.5 178.095 11.2 178.444 11.9C178.328 11.0833 178.328 10.2667 178.328 9.33333V6.76666H179.026V12.95H178.211L176.233 9.8C175.767 9.1 175.418 8.4 175.069 7.7C175.069 8.51666 175.185 9.21666 175.185 10.2667V12.95H174.37Z" fill="#707070"/>
<path d="M182.286 10.15V10.7333H179.958V10.15H182.286Z" fill="#707070"/>
<path d="M187.756 12.7167C187.407 12.8333 186.825 13.0667 186.127 13.0667C184.381 13.0667 182.984 11.9 182.984 9.91666C182.984 7.93333 184.264 6.65 186.243 6.65C187.058 6.65 187.524 6.76666 187.756 7L187.524 7.7C187.174 7.58333 186.825 7.46666 186.243 7.46666C184.73 7.46666 183.799 8.4 183.799 10.0333C183.799 11.55 184.73 12.6 186.127 12.6C186.592 12.6 187.174 12.4833 187.407 12.3667L187.756 12.7167Z" fill="#707070"/>
<path d="M193.926 9.68333C193.926 11.7833 192.645 12.95 191.016 12.95C189.386 12.95 188.222 11.6667 188.222 9.8C188.222 7.81667 189.386 6.53333 191.132 6.53333C192.878 6.53333 193.926 7.81667 193.926 9.68333ZM189.037 9.8C189.037 11.0833 189.735 12.3667 191.016 12.3667C192.296 12.3667 192.995 11.2 192.995 9.8C192.995 8.51667 192.296 7.23333 191.016 7.23333C189.735 7.23333 189.037 8.51667 189.037 9.8Z" fill="#707070"/>
<path d="M194.974 12.95V6.65H195.905L197.884 9.8C198.349 10.5 198.699 11.2 199.048 11.9C198.931 11.0833 198.931 10.2667 198.931 9.33333V6.76666H199.63V12.95H198.815L196.836 9.8C196.37 9.1 196.021 8.4 195.672 7.7C195.672 8.51666 195.788 9.21666 195.788 10.2667V12.95H194.974Z" fill="#707070"/>
<path d="M202.191 7.35H200.328V6.65H204.868V7.35H203.005V12.95H202.191V7.35Z" fill="#707070"/>
<path d="M205.915 10.9667L205.217 12.95H204.402L206.497 6.76667H207.428L209.524 12.95H208.592L207.894 10.9667H205.915ZM208.01 10.2667L207.428 8.51667C207.312 8.05 207.195 7.7 207.079 7.35C206.963 7.7 206.846 8.05 206.73 8.51667L206.031 10.2667H208.01Z" fill="#707070"/>
<path d="M214.878 12.7167C214.529 12.8333 213.947 13.0667 213.249 13.0667C211.503 13.0667 210.106 11.9 210.106 9.91666C210.106 7.93333 211.386 6.65 213.365 6.65C214.18 6.65 214.646 6.76666 214.878 7L214.646 7.7C214.296 7.58333 213.947 7.46666 213.365 7.46666C211.852 7.46666 210.921 8.4 210.921 10.0333C210.921 11.55 211.852 12.6 213.249 12.6C213.714 12.6 214.296 12.4833 214.529 12.3667L214.878 12.7167Z" fill="#707070"/>
<path d="M217.323 7.35H215.344V6.65H220V7.35H218.137V12.95H217.323V7.35Z" fill="#707070"/>
<path d="M161.915 17.85C162.381 17.7333 162.963 17.7333 163.661 17.7333C164.825 17.7333 165.64 17.9667 166.222 18.55C166.804 19.0167 167.153 19.7167 167.153 20.7667C167.153 21.8167 166.804 22.6333 166.222 23.2167C165.64 23.8 164.709 24.15 163.428 24.15C162.846 24.15 162.381 24.15 161.915 24.0333V17.85ZM162.73 23.45C162.963 23.45 163.195 23.45 163.545 23.45C165.291 23.45 166.222 22.5167 166.222 20.7667C166.222 19.25 165.407 18.3167 163.661 18.3167C163.195 18.3167 162.963 18.3167 162.73 18.4333V23.45Z" fill="#707070"/>
<path d="M168.899 17.85V24.0333H168.084V17.85H168.899Z" fill="#707070"/>
<path d="M171.228 22.05L170.529 24.0333H169.714L171.81 17.85H172.741L174.836 24.0333H173.905L173.206 22.05C173.439 22.05 171.228 22.05 171.228 22.05ZM173.323 21.4667L172.741 19.7167C172.624 19.25 172.508 18.9 172.392 18.55C172.275 18.9 172.159 19.25 172.042 19.7167L171.46 21.4667H173.323Z" fill="#707070"/>
<path d="M180.54 23.8C180.19 23.9167 179.492 24.15 178.677 24.15C177.746 24.15 176.931 23.9167 176.349 23.3333C175.767 22.8667 175.418 22.05 175.418 21C175.418 19.1333 176.698 17.7333 178.794 17.7333C179.492 17.7333 180.074 17.85 180.307 18.0833L180.074 18.7833C179.725 18.6667 179.376 18.55 178.677 18.55C177.164 18.55 176.116 19.4833 176.116 21.1167C176.116 22.75 177.048 23.6833 178.561 23.6833C179.143 23.6833 179.492 23.5667 179.608 23.5667V21.7H178.328V21H180.423V23.8H180.54Z" fill="#707070"/>
<path d="M181.704 24.0333V17.85H182.635L184.614 21C185.079 21.7 185.428 22.4 185.778 23.1C185.661 22.2833 185.661 21.4667 185.661 20.5333V17.9667H186.36V24.15H185.545L183.566 21C183.1 20.3 182.751 19.6 182.402 18.9C182.402 19.7167 182.518 20.4167 182.518 21.4667V24.15L181.704 24.0333Z" fill="#707070"/>
<path d="M193.111 20.8833C193.111 22.9833 191.831 24.15 190.201 24.15C188.571 24.15 187.407 22.8667 187.407 21C187.407 19.0167 188.571 17.7333 190.317 17.7333C192.063 17.6167 193.111 19.0167 193.111 20.8833ZM188.338 20.8833C188.338 22.1667 189.037 23.45 190.317 23.45C191.598 23.45 192.296 22.2833 192.296 20.8833C192.296 19.6 191.598 18.3167 190.317 18.3167C189.037 18.3167 188.338 19.6 188.338 20.8833Z" fill="#707070"/>
<path d="M194.159 23.1C194.508 23.3333 195.09 23.5667 195.672 23.5667C196.487 23.5667 196.953 23.1 196.953 22.5167C196.953 21.9333 196.603 21.5833 195.789 21.2333C194.741 20.8833 194.159 20.3 194.159 19.4833C194.159 18.55 194.974 17.7333 196.138 17.7333C196.72 17.7333 197.185 17.85 197.535 18.0833L197.302 18.7833C197.069 18.6667 196.72 18.4333 196.138 18.4333C195.323 18.4333 194.974 18.9 194.974 19.3667C194.974 19.95 195.323 20.3 196.254 20.5333C197.302 21 197.884 21.4667 197.884 22.4C197.884 23.3333 197.185 24.15 195.672 24.15C195.09 24.15 194.392 24.0333 194.042 23.6833L194.159 23.1Z" fill="#707070"/>
<path d="M199.979 18.4333H198.116V17.7333H202.772V18.4333H200.91V24.0333H200.095L199.979 18.4333Z" fill="#707070"/>
<path d="M204.169 17.85V24.0333H203.354V17.85H204.169Z" fill="#707070"/>
<path d="M209.989 23.8C209.64 23.9167 209.058 24.15 208.36 24.15C206.614 24.15 205.217 22.9833 205.217 21C205.217 19.0167 206.497 17.7333 208.476 17.7333C209.291 17.7333 209.756 17.85 209.989 18.0833L209.756 18.7833C209.407 18.6667 209.058 18.55 208.476 18.55C206.963 18.55 206.032 19.4833 206.032 21.1167C206.032 22.6333 206.963 23.6833 208.36 23.6833C208.825 23.6833 209.407 23.5667 209.64 23.45L209.989 23.8Z" fill="#707070"/>
<path d="M167.153 32.4333C167.153 31.5 167.037 30.45 167.037 29.75C166.804 30.45 166.571 31.2667 166.222 32.0833L165.174 35.1167H164.592L163.545 32.2C163.196 31.2667 162.963 30.5667 162.846 29.75C162.846 30.5667 162.73 31.6167 162.73 32.55L162.614 35.2333H161.799L162.264 29.05H163.312L164.36 32.0833C164.592 32.7833 164.825 33.6 164.942 34.1833C165.058 33.6 165.291 32.9 165.64 32.0833L166.804 29.05H167.852L168.201 35.2333H167.386L167.153 32.4333Z" fill="#707070"/>
<path d="M172.624 32.2H170.18V34.4167H172.857V35.1167H169.365V28.9333H172.74V29.6333H170.18V31.6167H172.624V32.2Z" fill="#707070"/>
<path d="M175.185 29.6333H173.323V28.9333H177.979V29.6333H176.116V35.2333H175.302L175.185 29.6333Z" fill="#707070"/>
<path d="M179.375 28.9333V31.5H182.402V28.9333H183.217V35.1167H182.402V32.2H179.375V35.1167H178.561V28.9333H179.375Z" fill="#707070"/>
<path d="M189.968 31.9667C189.968 34.0667 188.688 35.2333 187.058 35.2333C185.429 35.2333 184.265 33.95 184.265 32.0833C184.265 30.1 185.429 28.8167 187.175 28.8167C188.921 28.8167 189.968 30.1 189.968 31.9667ZM185.196 32.0833C185.196 33.3667 185.894 34.65 187.175 34.65C188.455 34.65 189.154 33.4833 189.154 32.0833C189.154 30.8 188.455 29.5167 187.175 29.5167C185.778 29.5167 185.196 30.6833 185.196 32.0833Z" fill="#707070"/>
<path d="M191.016 29.05C191.481 28.9333 192.063 28.9333 192.762 28.9333C193.926 28.9333 194.74 29.1667 195.323 29.75C195.905 30.2167 196.254 30.9167 196.254 31.9667C196.254 33.0167 195.905 33.8333 195.323 34.4167C194.74 35 193.809 35.35 192.529 35.35C191.947 35.35 191.481 35.35 191.016 35.2333V29.05ZM191.83 34.5333C192.063 34.5333 192.296 34.5333 192.645 34.5333C194.391 34.5333 195.323 33.6 195.323 31.85C195.323 30.3333 194.508 29.4 192.762 29.4C192.296 29.4 192.063 29.4 191.83 29.5167V34.5333Z" fill="#707070"/>
<path d="M197.069 34.1833C197.418 34.4167 198 34.65 198.582 34.65C199.397 34.65 199.862 34.1833 199.862 33.6C199.862 33.0167 199.513 32.6667 198.698 32.3167C197.651 31.9667 197.069 31.3833 197.069 30.5667C197.069 29.6333 197.883 28.8167 199.047 28.8167C199.629 28.8167 200.095 28.9333 200.444 29.1667L200.211 29.8667C199.979 29.75 199.629 29.5167 199.047 29.5167C198.233 29.5167 197.883 29.9833 197.883 30.45C197.883 31.0333 198.233 31.3833 199.164 31.6167C200.211 32.0833 200.793 32.55 200.793 33.4833C200.793 34.4167 200.095 35.2333 198.582 35.2333C198 35.2333 197.301 35.1167 196.952 34.7667L197.069 34.1833Z" fill="#707070"/>
<path fill-rule="evenodd" clip-rule="evenodd" d="M156.328 9.45H157.027V31.9667H156.328V9.45Z" fill="#707070"/>
<path fill-rule="evenodd" clip-rule="evenodd" d="M20.9524 0C9.42858 0 0 9.45 0 21C0 32.55 9.42858 42 20.9524 42C32.4762 42 41.9048 32.55 41.9048 21C41.9048 9.45 32.4762 0 20.9524 0ZM20.9524 38.9667C20.1376 38.9667 19.3228 38.85 18.508 38.7333L18.6244 17.7333C18.6244 16.9167 18.0423 16.3333 17.2275 16.3333C16.4127 16.3333 15.8307 16.9167 15.8307 17.7333L15.7143 38.15C13.9683 37.6833 12.455 36.8667 10.9418 35.9333V26.4833C10.9418 25.6667 10.2434 24.85 9.42858 24.85C8.61377 24.85 8.03175 25.4333 8.03175 26.25V33.4833C4.88889 30.3333 3.02646 25.9 3.02646 21C3.02646 11.0833 11.0582 3.03333 20.9524 3.03333C21.7672 3.03333 22.582 3.15 23.3968 3.26667L23.2804 24.2667C23.2804 25.0833 23.8625 25.6667 24.6773 25.6667C25.4921 25.6667 26.0741 25.0833 26.0741 24.2667L26.1905 3.85C27.9365 4.43333 29.5662 5.25 31.0794 6.18333V15.8667C31.0794 16.6833 31.6614 17.2667 32.4762 17.2667C33.291 17.2667 33.8731 16.6833 33.8731 15.8667V8.63333C37.0159 11.9 38.8783 16.2167 38.8783 21.1167C38.8783 30.9167 30.8466 38.9667 20.9524 38.9667Z" fill="#13120D"/>
<defs>
<radialGradient id="paint0_radial_2166_7660" cx="0" cy="0" r="1" gradientUnits="userSpaceOnUse" gradientTransform="translate(20.9564 21.021) scale(18.8477 18.9056)">
<stop stop-color="#FFED00"/>
<stop offset="1" stop-color="#A4C41F"/>
</radialGradient>
<linearGradient id="paint1_linear_2166_7660" x1="23.9095" y1="18.3868" x2="32.8149" y2="9.5016" gradientUnits="userSpaceOnUse">
<stop offset="2.08616e-07" stop-color="#FFED00" stop-opacity="0"/>
<stop offset="1" stop-color="white"/>
</linearGradient>
</defs>
</svg>
