<svg width="28" height="28" viewBox="0 0 28 28" fill="none" xmlns="http://www.w3.org/2000/svg">
<mask id="mask0_72_26745" style="mask-type:alpha" maskUnits="userSpaceOnUse" x="0" y="0" width="28" height="28">
<rect width="28" height="28" fill="#D9D9D9"/>
</mask>
<g mask="url(#mask0_72_26745)">
<path d="M5.74001 20.4006C5.74001 20.7226 6.006 20.9746 6.314 20.9746L9.24 20.9606C9.394 20.9606 9.548 20.8906 9.646 20.7926C9.758 20.6806 9.814 20.5406 9.814 20.3866L9.8 17.4606C9.8 17.1386 9.534 16.8866 9.226 16.8866C8.904 16.8866 8.652 17.1526 8.652 17.4746V18.8746C7.49 17.5866 6.804 15.7526 6.804 13.7366C6.804 11.3426 8.078 8.78062 9.8 7.99662V6.48462C7.26601 7.46462 5.55801 10.5166 5.57201 13.7226C5.57201 16.0886 6.37001 18.2586 7.728 19.7986H6.314C6.006 19.8126 5.74001 20.0786 5.74001 20.4006Z" fill="white"/>
<path d="M3.738 6.63857C2.688 8.43056 2.1 10.6706 1.974 12.9526L0.98 11.9726C0.756 11.7486 0.392 11.7486 0.168 11.9726C-0.056 12.1966 -0.056 12.5606 0.168 12.7986L1.96 14.5626C1.96 14.5766 1.974 14.5906 1.974 14.6046C2.072 16.8866 2.632 19.1125 3.668 20.8905C5.082 23.3265 7.182 24.6005 9.688 24.6005C9.744 24.6005 9.786 24.6005 9.842 24.6005V23.3405C7.098 23.4105 5.474 21.7445 4.578 20.1905C3.71 18.6925 3.206 16.7746 3.094 14.8006C3.15 14.7306 3.192 14.6466 3.22 14.5486L4.984 12.7566C5.208 12.5326 5.208 12.1686 4.984 11.9306C4.76 11.7066 4.396 11.7066 4.172 11.9306L3.094 13.0226C3.206 10.9506 3.724 8.90656 4.662 7.31057C5.572 5.75657 7.182 4.09057 9.856 4.14657V2.88657C7.322 2.87257 5.194 4.16057 3.738 6.63857Z" fill="white"/>
<path d="M18.774 16.8726C18.76 16.8726 18.76 16.8726 18.774 16.8726C18.452 16.8726 18.2 17.1246 18.2 17.4466L18.186 20.3726C18.186 20.5266 18.256 20.6806 18.354 20.7786C18.452 20.8906 18.606 20.9466 18.76 20.9466L21.686 20.9606C22.008 20.9606 22.26 20.7086 22.26 20.3866C22.26 20.0646 22.008 19.8126 21.686 19.7986H20.272C21.63 18.2586 22.428 16.0886 22.428 13.7226C22.428 10.5166 20.734 7.46462 18.2 6.48462V7.98262C19.922 8.76662 21.196 11.3286 21.196 13.7226C21.196 15.7386 20.51 17.5726 19.348 18.8606V17.4606C19.348 17.1386 19.082 16.8726 18.774 16.8726Z" fill="white"/>
<path d="M27.832 12.7986C28.056 12.5746 28.056 12.2106 27.832 11.9726C27.608 11.7486 27.244 11.7486 27.02 11.9726L26.026 12.9526C25.9 10.6706 25.312 8.43057 24.262 6.62457C22.806 4.14658 20.678 2.85858 18.158 2.90058V4.16058C20.832 4.10458 22.442 5.78458 23.352 7.32457C24.29 8.92057 24.808 10.9506 24.92 13.0366L23.842 11.9446C23.618 11.7206 23.254 11.7206 23.03 11.9446C22.806 12.1686 22.806 12.5326 23.03 12.7706L24.794 14.5626C24.808 14.6466 24.85 14.7446 24.92 14.8146C24.794 16.7886 24.304 18.6926 23.436 20.2046C22.54 21.7586 20.916 23.4246 18.172 23.3545V24.6145C18.228 24.6145 18.27 24.6145 18.326 24.6145C20.832 24.6145 22.932 23.3405 24.346 20.9046C25.382 19.1266 25.942 16.9006 26.04 14.6186C26.04 14.6046 26.054 14.5906 26.054 14.5766L27.832 12.7986Z" fill="white"/>
<path d="M17.5 3.71265C17.5 2.98465 17.108 2.59265 16.366 2.59265C14.812 2.59265 13.272 2.59265 11.718 2.59265C10.85 2.59265 10.5 2.94265 10.5 3.81065V13.1906H17.5C17.5 10.7966 17.5 6.12065 17.5 3.71265ZM16.184 9.74664C16.184 10.2086 16.016 10.4326 15.68 10.4326C15.456 10.4326 15.246 10.2926 15.05 10.0266L13.034 7.36664V9.60664C13.034 10.1386 12.852 10.3906 12.474 10.3906C12.11 10.3906 11.914 10.1246 11.914 9.60664V6.14865C11.914 5.64465 12.082 5.40665 12.432 5.40665C12.642 5.40665 12.838 5.53265 13.02 5.77065L15.078 8.48664V6.19065C15.078 5.65865 15.26 5.40665 15.638 5.40665C16.016 5.40665 16.198 5.67265 16.198 6.19065V9.74664H16.184Z" fill="white"/>
<path d="M10.5 13.6107V23.6627C10.5 24.3907 10.892 24.7827 11.634 24.7827C13.216 24.7827 14.798 24.7827 16.38 24.7827C17.108 24.7827 17.5 24.3906 17.5 23.6487C17.5 21.2407 17.5 16.0047 17.5 13.6107H10.5ZM15.148 21.5067C14.812 21.7727 14.378 21.9127 13.86 21.9127C13.594 21.9127 13.342 21.8707 13.09 21.8007C12.782 21.7167 12.572 21.5907 12.432 21.4227C12.362 21.3247 12.32 21.2407 12.32 21.1427C12.32 20.9887 12.376 20.8767 12.474 20.7927C12.572 20.7087 12.698 20.6667 12.852 20.6667C12.936 20.6667 13.104 20.7087 13.356 20.7787C13.636 20.8627 13.846 20.8907 14 20.8907C14.154 20.8907 14.28 20.8487 14.378 20.7647C14.476 20.6807 14.532 20.5547 14.532 20.4147C14.532 20.2187 14.462 20.0787 14.308 19.9947C14.182 19.9247 13.972 19.8407 13.692 19.7567C13.258 19.6307 12.95 19.4767 12.754 19.3227C12.488 19.0987 12.348 18.7907 12.348 18.4127C12.348 17.9507 12.516 17.5727 12.866 17.2927C13.188 17.0407 13.594 16.9007 14.07 16.9007C14.476 16.9007 14.784 16.9707 15.022 17.1107C15.26 17.2507 15.372 17.4047 15.372 17.6007C15.372 17.9087 15.204 18.0627 14.882 18.0627C14.784 18.0627 14.644 18.0347 14.476 17.9787C14.294 17.9227 14.154 17.8947 14.042 17.8947C13.902 17.8947 13.776 17.9227 13.678 17.9927C13.566 18.0627 13.51 18.1747 13.51 18.3007C13.51 18.3847 13.524 18.4547 13.566 18.5107C13.622 18.5807 13.748 18.6647 13.93 18.7347C14.07 18.7767 14.21 18.8187 14.364 18.8747C14.784 19.0147 15.092 19.1827 15.288 19.3787C15.54 19.6167 15.68 19.9387 15.68 20.3307C15.708 20.8207 15.526 21.2127 15.148 21.5067Z" fill="white"/>
</g>
</svg>
