<svg width="28" height="28" viewBox="0 0 28 28" fill="none" xmlns="http://www.w3.org/2000/svg">
<mask id="mask0_72_26754" style="mask-type:alpha" maskUnits="userSpaceOnUse" x="0" y="0" width="28" height="28">
<rect width="28" height="28" fill="#D9D9D9"/>
</mask>
<g mask="url(#mask0_72_26754)">
<path d="M15.6475 13.0365C15.3282 12.9017 14.9823 12.8209 14.6098 12.8209C13.1597 12.8209 11.9756 14.0202 11.9756 15.489C11.9756 16.9579 13.1597 18.1572 14.6098 18.1572C16.0599 18.1572 17.2439 16.9579 17.2439 15.489C17.2439 15.1252 17.1641 14.7748 17.0444 14.4514L19.4257 10.6244L15.6475 13.0365ZM14.6231 16.4189C14.1175 16.4189 13.7184 16.0011 13.7184 15.5025C13.7184 14.9904 14.1308 14.5862 14.6231 14.5862C15.1286 14.5862 15.5277 15.0039 15.5277 15.5025C15.5277 16.0011 15.1153 16.4189 14.6231 16.4189Z" fill="white"/>
<path d="M8.67628 15.9067C8.67628 15.4485 8.31708 15.0847 7.86475 15.0847H1.81153C1.3592 15.0847 1 15.4485 1 15.9067C1 16.3649 1.3592 16.7287 1.81153 16.7287H7.86475C8.31708 16.7287 8.67628 16.3514 8.67628 15.9067Z" fill="white"/>
<path d="M3.1419 13.7507H9.19512C9.64745 13.7507 10.0066 13.3868 10.0066 12.9286C10.0066 12.4705 9.64745 12.1066 9.19512 12.1066H3.1419C2.68957 12.1066 2.33037 12.4705 2.33037 12.9286C2.33037 13.3868 2.68957 13.7507 3.1419 13.7507Z" fill="white"/>
<path d="M10.0066 18.8444C10.0066 18.3862 9.64745 18.0224 9.19512 18.0224H3.1419C2.68957 18.0224 2.33037 18.3862 2.33037 18.8444C2.33037 19.3026 2.68957 19.6664 3.1419 19.6664H9.19512C9.64745 19.6664 10.0066 19.2891 10.0066 18.8444Z" fill="white"/>
<path d="M15.4612 5.01853V3.75182H17.1508C17.6297 3.75182 18.0155 3.36103 18.0155 2.87591C18.0155 2.39079 17.6297 2 17.1508 2H12.0953C11.6164 2 11.2306 2.39079 11.2306 2.87591C11.2306 3.36103 11.6164 3.75182 12.0953 3.75182H13.7317V5.01853C10.0333 5.34194 6.88026 7.63279 5.31041 10.8535H7.29268C8.82261 8.38742 11.5366 6.72993 14.6231 6.72993C19.3991 6.72993 23.2705 10.6648 23.2705 15.4891C23.2705 20.3268 19.3858 24.2482 14.6231 24.2482C11.7894 24.2617 9.26163 22.8737 7.69179 20.7311H5.6297C7.42571 23.8843 10.7783 26 14.6231 26C20.3437 26 25 21.2836 25 15.4891C25 9.99102 20.7827 5.46322 15.4612 5.01853Z" fill="white"/>
</g>
</svg>
